<svg xmlns="http://www.w3.org/2000/svg" viewBox="-14 -16 2728 1830"><path fill="#F6EFD9" d="M-14-14h2728v534l-1075 41L583 855l-259 283s-338 110-338 101V-14"></path><path fill="#C7A16B" d="M-14 1539v275h2728v-507l-1131-38h-278l-578 57-740 212"></path><path fill="#9E5D42" d="M1670 500c-28-33 77-20 109-19h132l125-2 119 2h458c34 0 67 0 101 2v606c-9 3-33 0-43 0-20 1-38 6-58 4-34-3-69-4-104-4-82 0-160-41-240-60-79-19-166-48-245-67-42-10-50-6-83-34-17-14-77-32-97-42-21-10-39-55-59-67-59-35-69-52-93-117-20-52-11-73-13-129l-9-73z"></path><path fill="#DEA756" d="m2471 252 2-9c2-10 3-26 1-36-26-1-51 1-77 2s-52-3-77 1c-11 1-21 0-32 2-12 3-25 3-38 4-19 0-37-2-55-4h-24c-5 1-16-1-19 4-2 3 1 14 1 18 1 13 5 25 7 38l8 49c3 36 17 72 27 107 6 21 12 42 20 63 2 5 3 14 8 17 4 2 13 1 17 2l36 2c14 2 28 0 42 0h78l14-3c8-1 10 1 15-6 4-6 5-13 7-20l9-31c5-22 10-44 13-66 3-18 9-35 12-53l1-41 4-40z"></path><path fill="#44312D" d="M2371 509c3 18-59 8-69 9l-60-3c-8 0-22 0-23-11 10 0 20 4 30 4l33 3h69c7 0 15 1 21-1"></path><g fill="#32371A"><path d="M1994 349c-9-3-12-18-12-26-1-5-2-10-1-14l7-14c5-14 8-28 17-41 5-10 13-20 14-31 0-13 8-20 15-29 3-4 2-7 3-11 1-6 3-10 6-14 10-19 28-30 41-48 3-6 5-14 11-17 2 4-1 10-1 14l-1 21c-2 10-1 21-2 31s-3 16-9 24l-11 15c-3 4-9 7-14 11-3 3-6 7-10 8-9 8-14 21-23 28-5 5-9 7-12 14-2 6-7 11-10 16-5 12-13 24-16 37-1 7-2 19 5 25m146-200c-4 5-4 11-6 17l-11 16c-2 5-6 9-10 13-9 9-16 19-25 27-7 7-19 15-19 27 5-7 10-13 16-17 6-5 12-6 17-9l3-1c-8 1-11 13-14 19-5 8-11 17-7 26 0-7-1-8 4-14l15-18 16-16c4-5 10-7 15-10-4 8-11 15-14 23l-12 35-3 15c-1 8 0 16 4 23-3-5 1-21 5-25 4-7 13-10 20-12 14-5 24-21 34-32 6-7 11-14 14-22 2-5 1-6-1-10-7-10-9-20-13-32-4-10-2-20-6-30-6-16-17 0-22 7zm63-162-11 17 1 2c5 7 10 15 11 24 9 2 19 2 29-1 4-2 24-11 28-6l-8-20c-2-4-5-15-8-16h-42zm5 238-1 21c0 7 3 14 8 19 4 5 5 8 5 14 1 9 0 15-5 23-4 5-8 12-14 14l14-8 13-10c5-3 9-5 13-9l18-18c13-11 26-27 31-43l3-15-1-8 1-5-2-9 3-23c2-9 8-16 11-24l7-15 8-17 13-30c1-5 2-10 1-15l1-12c0-5 1-11-2-16s-10-7-15-7h-7l-3-1-4-1-10-2c-13-1-28 0-35 12-4 8-7 16-5 24l3 18c0 9-3 20-8 28l-9 22-10 28-9 18-8 21-5 26zm199-21c6 6 14 10 16 19 1 10-1 20 3 30l11 25c5 10 10 19 13 28 4 10 3 19 4 29l1 19c1 7 4 12 1 19-1 4-2 10-6 11 21-9 31-36 44-54 6-8 15-14 20-23 6-9 3-21 3-31 0-27 18-49 20-75 2-13 3-26 2-39-2-16-5-29-12-44-6-14-14-22-23-34-9-11-16-16-30-18-11-2-25-3-37-3-9 1-20 0-29 5-7 4-12 13-13 21l-5 26-1 34c1 6 0 14 2 20 4 12 7 24 16 35z"></path><path d="M2369 206c10 7 46-27 51-10l-29 10-26 12c-2-4 2-8 4-12"></path></g><g fill="#32371A"><path d="M2331 43c0-8 2-16 5-24l2-9 3-11 4-13h3l-4 14-3 11-2 9c-3 7-5 15-5 23h-3z"></path><path d="M2356 35c-2-10-7-20-12-29l-10-20h4l8 18c5 10 11 20 13 30l-3 1z"></path><path d="M2348 38c0-6 2-14 4-21l3-9 1-2c1-7 3-13 3-20h3c0 7-2 13-4 20v3l-3 9c-2 7-4 14-4 20h-3zm-24 12-2-14-2-15-2-10c-1-9-2-19-7-25h4c4 6 5 16 6 24l2 10 2 16 2 13-3 1zm55-17-2-14c-2-11-3-23-9-33l3-2 1 2c5 10 6 22 8 32l2 15h-3z"></path></g><path fill="#484E21" d="M1930 122c1 0 9-3 11-6 3-4 3-8 8-12 8-7 11-16 16-25 11-19 36-33 55-43 8-4 15-10 23-13 9-5 20-4 30-3 22 4 45 1 65 8 0 6-9 9-12 11-11 1-21 9-29 16-6 5-15 8-23 8-7 1-15 3-22 1-6-1-12-4-18-3-9 3-19 10-26 16l-24 20c-3 4-8 6-12 8l-9 5-8 5c-8 4-19 12-29 6"></path><path fill="#484E21" d="M2099 65c-11 1-22 4-32 7-18 6-35 7-52 14-5 1-9 4-12 7-3 2-3 6-5 8l-13 8c-9 8-15 21-19 32-3 6-4 13-8 19-3 5-8 7-13 10l-11 9c13-11 30-15 45-21 8-4 15-7 21-13l6-6 5-6 18-18 22-17c6-3 15-5 21-5l17 1 1 3 8-3c8-4 22-8 25-17 7-17-15-12-24-12z"></path><path fill="#32371A" d="M2090 93c-12-1-28-3-42 4-13 6-23 19-32 29-8 9-16 18-25 25l-12 7c8-3 16-6 23-11 17-12 34-24 53-34l35-16c0-1 13-3 0-4z"></path><path fill="#484E21" d="m2214-14-10 12c-10 13-17 29-25 43-7 12-14 25-19 38l-10 27-12 25c-5 11-8 22-14 33l-10 18c-2 5-2 11-3 17l-2 15c0 10-7 30 11 30-17 0-29-27-35-38l-6-15-1-15v-15c0-20 5-37 11-57 5-15 8-32 14-48 8-18 18-35 30-50 4-6 10-16 16-20h65z"></path><path fill="#484E21" d="M2162 247c3-4 6-6 7-10s2-10 1-14c-1-6-7-12-10-18l-10-19c-5-13-8-28-9-42l-2-18 3-19c3-12 6-25 11-37 8-16 21-29 35-40 10-8 30-21 41-8-1-2 8-7 9-7 4-2 8-4 13-2 5 1 11 6 15 10l3 12c0 5 3 9 3 14l3 18c1 8 1 16-1 25-4 15-14 28-18 43-4 12-10 23-16 34-4 8-7 15-12 22a111 111 0 0 1-28 29l-18 15-8 5-2 1-7 4-3 2z"></path><path fill="#484E21" d="M2305-14h1V6l4 25c-8 2-13 3-21 2-13-3-20 3-32 5 3-17 1-34 2-52h46zm13 91c5 13 16 23 27 32 14 11 29 20 41 33 13 13 20 29 20 48 16-19 8-43 14-65 2-7 5-13 5-20s-3-15-5-22c-6-19-14-37-28-52-4-5-7-11-14-12-5-2-10-2-15 0-9 3-16 10-17 20-6-2-13-3-20-1-5 5-11 12-12 19-1 6 2 14 4 20z"></path><path fill="#484E21" d="M2395 352c-3 2-12-5-15-7-10-7-16-13-23-24-3-5-5-10-11-13-10-4-21-6-29-12-12-9-20-22-27-34-8-14-14-32-17-48-7-29-11-59 1-86l8-17 11-16c5-8 10-14 16-20 6-5 14-18 23-10 5 5 8 12 12 17 8 12 19 24 30 32 10 8 18 16 24 26 4 6 11 14 9 21-1 7-9 14-13 20-4 7-4 15-6 23l-8 23-8 18c-4 14-6 29-6 44 0 14 4 26 9 39 4 7 12 22 21 25m60-367h-72l-2 28c0 11 1 21 8 30 5 8 13 15 19 23l16 19 15 9c9 5 17 12 25 18 6 5 12 11 14 19 2 9 1 17-4 24l13-16c3-6 5-14 6-21 2-15 3-31 1-46-1-15-9-28-13-42l-8-22-7-12-11-11z"></path><path fill="#484E21" d="M2468 15c1 2 16 1 18 1 6 0 13 2 20 4 10 4 23 0 33 5 9 6 16 18 22 26 4 6 6 11 11 16 2 3 2 6 5 9l8 7c6 4 10 10 12 17l8 19 6 10c3 6 8 9 12 15l4 10c3 11 11 20 19 28l-8-4-6-5-11-12-4-5-1-7c-3-5-8-9-12-12l-14-8-19-10-14-12-9-11-5-8c-3-3-6-5-10-6-3 0-8-4-11-6l-13-8c-9-5-19-7-27-13l-14-40z"></path><path d="m2296 43-2-1 2-15 1-14 1-13 2-14h3l-2 15-1 12-1 14c-1 5-1 11-3 16zm-10-3h-2c0-8-4-18-7-26l-2-5-1-2c-2-6-6-20-11-21h5a70 70 0 0 1 10 22l2 5c3 9 7 19 6 27z" fill="#32371A"></path><path fill="#8B6C4B" d="M2066 1443c-8 2-21 2-26 6-20 14 8 14 15 16 56 9 102 0 156-14 31-8 63-25 95-29a1288 1288 0 0 0 211-42c33-9 67-21 101-27l51-8c15-2 31-10 45-10v-15c-14 1-25-6-39-7-18-1-37 4-55 8-38 7-75 18-112 30-48 18-98 23-148 35l-146 37c-30 8-59 9-90 11a335 335 0 0 0-58 9z"></path><path fill="#9D5D46" d="M781 1436c-10-2-14-14-19-21-6-7-16-15-24-19-16-9-35-14-53-16a427 427 0 0 0-84-6c-8-1-15-6-23-6l16-32 4-5c-27 11-53 19-82 19l-44-1h-89l-75-3c-32-2-63-6-95-7-23-1-43 2-65-2-29-6-60-7-89-8-18-1-35 2-52-1-7-1-15-5-21-4v274c20 4 44 4 65 8 18 4 36 9 54 11 24 2 48 2 71 6 25 4 50 2 75 5l44 6c16 2 26-3 41-9l89-37c51-23 100-47 152-66l43-17 78-33c19-7 36-18 54-25l29-11z"></path><path fill="#CFC1A9" d="M-14 1578c65 10 131 22 197 29 15 2 28 3 43 3 16 1 31 4 46 4 6 3 19 3 19 3s-11-8-14-16c-6-15-13-29-12-46 1-8 2-21 5-28l-23-5c-17-5-35-5-51-8-27-5-55-3-82-8l-56-7c-14-2-27-5-42-5-9 0-20-2-30-4v88z"></path><path fill="#8B6C4B" d="M1301 1480c-21-8-41-18-58-33-20-16-44-26-67-37s-46-20-69-32c-12-6-23-13-35-18-12-6-25-7-37-12-25-9-49-20-73-33-28-15-63-23-94-30-35-8-72-13-107-17-13-2-22 3-34 7-14 4-28 7-43 9-23 4-44 9-64 23-9 6-15 15-22 24l7-3c25-11 50-17 76-23 15-3 28-7 44-8 38-2 78 5 116 13 23 4 45 12 67 16 9 2 18 3 26 6 6 1 13 6 19 5 3 2 5 3 8 3-14 11-31 19-46 27-14 9-29 16-44 23l-59 32c-10 6-20 10-31 14l10-3c18-2 35 0 53-2 21-3 41-7 62-6 28 1 56-1 84 2 45 4 89 6 132 19 31 9 61 19 92 27l69 14c13 2 43 17 52 12-11-6-21-14-34-19z"></path><path fill="#6F3F2F" d="M953 1337c-6 1-13-4-19-5-8-3-17-4-26-6-22-4-44-12-67-16-38-8-78-15-116-13-16 1-29 5-44 8a408 408 0 0 0-83 26l-4 5-16 32c8 0 15 5 23 6a233 233 0 0 0 35 1l-3-4c10-7 21-8 32-3 6 2 11 6 15 11a2352 2352 0 0 1 29 6c-4-8-10-15-16-19-7-4-13-5-20-1l-4-10c10-4 20-4 29 2a63 63 0 0 1 24 32 108 108 0 0 1 23 11v-1c-1-17-10-40-22-45-6-3-13-1-20 5l-6-8c13-11 23-9 30-6 18 8 27 36 28 54v9a73 73 0 0 1 9 10c3-7 5-15 5-18 1-5-1-16-5-28s-10-21-17-25c-4-3-9-3-14 0l-6-8c9-6 18-6 26-1 11 7 17 22 20 30 5 12 7 25 6 33 0 3-3 16-9 27l2 2c11-7 18-29 19-39s-12-50-26-57c-2-1-6-1-10 3l-8-6c7-7 15-9 22-6 20 9 34 54 32 68-1 9-8 32-20 43 11-4 21-8 31-14l59-32c15-7 30-14 44-23 15-8 32-16 46-27-3 0-5-1-8-3z"></path><path fill="none" stroke="#44312D" stroke-width="10" stroke-miterlimit="10" d="M324 1479c18-3 36-5 49 10 11 12 21 27 25 43 4 14 9 28 7 43-2 13-6 19-17 25m-20-143c37-4 61 40 70 70 4 15 6 52-13 59m-14-137c42 15 77 51 66 99-3 11-12 17-17 25"></path><path fill="none" stroke="#44312D" stroke-width="10" stroke-miterlimit="10" d="M446 1440c31-2 55 24 63 53 5 18 12 51-7 61"></path><path fill="none" stroke="#44312D" stroke-width="10" stroke-miterlimit="10" d="M483 1427c43-15 73 58 62 91-4 10-11 16-16 25h-4"></path><path fill="none" stroke="#44312D" stroke-width="10" stroke-miterlimit="10" d="M520 1413c-1 1 1 3-2 1 32-2 56 30 59 58 3 25-2 40-14 59"></path><path fill="none" stroke="#44312D" stroke-width="10" stroke-miterlimit="10" d="M545 1403c18 0 32 2 44 17 9 12 15 25 18 40 4 19 2 54-17 61"></path><path fill="none" stroke="#44312D" stroke-width="10" stroke-miterlimit="10" d="M583 1394c17-1 25 2 38 14 11 11 19 25 23 40 3 14 2 55-19 52"></path><path fill="none" stroke="#44312D" stroke-width="10" stroke-miterlimit="10" d="M611 1385c4-8 24-5 32 0 12 7 22 21 27 35 5 15 4 74-21 71"></path><path fill="none" d="M751 1437c4-2 9-10 13-19l-2-3-7-7c0 11-3 21-6 29h2zm21-7-2-2-2 3 4-1zm-49 21 4-3c2 0 7-5 10-10 6-9 9-23 8-38l-7-4-16-7c4 9 6 19 7 27 1 13-1 25-6 35z"></path><path fill="#6F3F2F" d="m645 1376 17 1h-1c-6-3-11-3-16-1z"></path><path fill="#44312D" d="m639 1379 6-3-9-1 3 4zm52 47c1 13-2 36-11 46-3 3-6 4-10 4v10h1c6 0 12-2 16-7 13-13 15-39 14-54-1-14-9-33-21-46l-18-2c15 8 28 32 29 49z"></path><path fill="#30211E" d="M665 1368c-11-5-22-4-32 3l3 4 9 1c5-2 10-2 16 1h1l18 2c-4-5-9-9-15-11z"></path><path fill="#44312D" d="m719 1454 4-3c5-10 7-22 6-35-1-8-3-18-7-27l-13-4c6 10 9 23 10 31 1 21-4 35-17 45l-3 1h-2v10h3l3-1 2 1 2-1 14-15-2-2z"></path><path fill="#30211E" d="M720 1384c-4-9-11-21-22-27-9-6-19-6-29-2l4 10c7-4 13-3 20 1 6 4 12 11 16 19l13 4-2-5z"></path><path fill="#44312D" d="M762 1431h6l2-3-6-10c-4 9-9 17-13 19h-2a52 52 0 0 1-5 9 13 13 0 0 0 10 0c3-1 5-2 7-5h-1l2-10z"></path><path fill="#30211E" d="M779 1401c1-8-1-21-6-33-3-8-9-23-20-30-8-5-17-5-26 1l6 8c5-3 10-3 14 0 7 4 13 13 17 25s6 23 5 28c0 3-2 11-5 18l6 10c6-11 9-24 9-27z"></path><path fill="#44312D" d="m747 1436 2 1c3-8 6-18 6-29l-10-8c1 15-2 29-8 38-3 5-8 10-10 10l-4 3-2 5a10 10 0 0 0 7 2c6 0 13-8 16-12l-3-2 6-8z"></path><path fill="#30211E" d="M755 1399c-1-18-10-46-28-54-7-3-17-5-30 6l6 8c7-6 14-8 20-5 12 5 21 28 22 45v1l10 8v-9z"></path><path fill="#44312D" d="m719 1454 2 2 2-5-4 3zm30-17-2-1-6 8 3 2a45 45 0 0 0 5-9zm23-7-4 1c-2 4-4 8-7 10a20 20 0 0 0 17-3l3-2c-4-1-7-3-9-6z"></path><path fill="#30211E" d="M801 1393c2-14-12-59-32-68-7-3-15-1-22 6l8 6c4-4 8-4 10-3 14 7 27 47 26 57s-8 32-19 39c2 3 5 5 9 6 12-11 19-34 20-43z"></path><path fill="#44312D" d="m762 1431-2 10h1c3-2 5-6 7-10h-6z"></path><path fill="none" stroke="#30211E" stroke-width="10" stroke-miterlimit="10" d="M801 1321c7 0 10-2 17 1 4 2 10 8 13 12 8 10 10 24 11 37 1 16-5 52-26 45"></path><path fill="none" stroke="#30211E" stroke-width="10" stroke-miterlimit="10" d="M776 1327c14-2 23-2 33 13 9 13 12 27 12 43 0 20-10 48-33 43m40-108c45-18 44 86 15 85m23-93c29 19 26 77-5 86"></path><path fill="none" stroke="#30211E" stroke-width="10" stroke-miterlimit="10" d="M897 1317c0 17 11 33 6 51-4 11-13 18-24 19m34-63c6 16 9 36-4 48-2 0-1-1-2-2m24-44c-3 6 4 18 1 26-2 6-6 12-12 14"></path><path fill="#E7D7BA" d="M-14 1214c29-16 62-24 94-35 40-15 80-37 119-54l42-24c11-7 24-17 37-19 8-2 14 1 22 2h30l75-4c20-1 40 2 60 3l83 1c18 0 35 5 54 5 13 0 29-1 42 2 22 4 44 6 67 7 31 0 61 1 91 8 19 4 39 8 58 14 17 5 35 10 53 13 20 4 39 12 59 18 24 8 51 9 76 17 25 7 50 18 75 27 29 9 60 16 90 23 19 4 38 11 57 16l61 17c12 3 24 1 35 6 11 4 20 11 31 16 18 10 39 14 60 18 16 4 39 2 47 18 12 23-12 56-22 75l-21 38-22 43c-7 13-12 29-24 38-7 6-16 9-26 10-11 2-17-2-28-7l-33-15c-11-3-21-4-32-9-14-6-25-12-39-17l-25-11-39-14c-27-8-56-18-81-31-23-11-45-22-69-32-31-12-61-26-92-39-21-9-41-15-62-23-21-7-43-9-64-15-17-4-38-4-56-3h-36c-21 0-40 5-61 7-13 1-64 14-45 37 3 4-33 21-38 21-5-1-8-5-12-7-10-3-25-1-36-1-19-1-35-6-55-5-23 1-46 4-69 4h-55c-29 0-56-8-84-8-18-1-35 1-53-1l-43-7c-22-2-44-1-66-2-16-1-32-6-47-6l-36-3-17-1-18-4-12-1"></path><path fill="#CFC1A9" d="M-14 1269c39 7 80 6 120 11 25 3 50 1 75 2l76 4c56 3 111-8 166-11 36-2 68 3 101 14 27 9 49 26 73 41 4 3 17 11 19 15 2 6-6 9-11 11-8 4-18 9-27 9-11-18-56-12-74-12-43-1-85-5-130-5-27 0-53 0-81-3-25-3-49-6-74-3-12 2-26 4-39 3-11-1-20-7-30-9-14-4-28-1-42-1-12 0-22-3-33-5-19-4-39-5-57-5-8-1-16-4-24-4l-8-1"></path><path fill="#DF7861" d="M-14 1315c14-1 28 1 43 1l25 1 64 8 51 5c72 7 145 10 217 11 21 0 40 3 60 3l75 1c16 1 36-3 51 3 9 4 11 8 20 7 12-1 27-11 23-24l-15-5c-2-1 21-17 23-18 11-4 21-5 32-8 13-4 25-7 38-8l57-7c37-3 75 2 111 11 62 15 127 36 184 65 18 9 37 14 54 24 14 9 30 16 45 23 29 13 59 19 87 35 15 8 32 15 48 21 28 9 54 25 82 34 14 4 29 12 44 5 11-5 20-17 24-28 6-14 15-26 21-40l20-44c11-23 20-50 34-71l13 5c-8 9-13 23-17 33l-17 38-21 36c-10 19-17 38-28 58-11 18-23 30-45 32-12 1-19-5-29-8l-41-15c-30-13-59-24-89-35l-40-13c-13-4-26-12-40-15l-20-7-36-14-33-17-27-16c-8-3-17-4-25-8-26-13-53-19-81-27-12-4-24-12-37-14-12-1-23-1-36-4l-51-11a279 279 0 0 0-137 3c-8 2-28 2-34 8 2-1 2 12 1 14-2 5-8 10-13 13-9 7-22 11-33 15-13 4-16-8-25-11-8-2-20 0-28 0-21 1-42-4-63-3-38 1-75 1-112 3-23 1-44-2-66-5-24-3-49-3-73-3-22 0-45 1-66-2l-39-4c-23-1-48-7-72-10-16-2-42-6-58-5"></path><path fill="#44312D" d="M891 1138c-32 15-66 21-97 36-12 5-24 12-37 19-11 6-26 11-34 21-9 2-16 9-24 13l-26 10c-18 6-35 8-55 12-20 3-40 2-55 14-8 7-15 14-15 26-1 15 12 21 24 29s27 19 37 30c4-3 10-8 12-13l-2-3c-11-9-23-16-35-24-9-6-23-16-17-29 5-11 36-13 46-15 18-3 34-9 51-14s34-9 50-16c15-7 29-17 43-25 17-9 34-15 51-23 14-6 26-15 40-20 12-4 25-9 37-9 11 0 23 11 34 8-4-16-17-30-34-26"></path><path fill="#C7A16B" d="M-14 612v37l54-2 55 1c36-2 86-1 97-1l33-2 1-34c1-54 3-108-1-162-3-51-2-103-5-155-2-36-1-72 1-108 1-33-2-65-2-98l2-102h-31v2a1111 1111 0 0 0-3 39c1 8 8 63 6 81-14 116-3 190 3 307 2 45 10 157-16 197"></path><path fill="#D4E2D4" d="M-14 621s51-3 80-1c23 1 39 4 67 3 19-2 68-2 71-7 5-15 2-36 2-53 1-25-1-48-1-69v-59c-1-19-2-44-1-64 0-63-7-114-4-173 2-41-2-81-2-122 0-31-5-90-5-90H-14v262"></path><path fill="#C7A16B" d="M-14 261c49 2 85 0 134-2 30-1 61 0 91-2 7 24-12 25-28 26-31-1-69-1-97 1-42 0-62-2-100-1v-16"></path><path d="M1563 35c0 37-9 70-16 106-4 20-3 42-6 62-2 22-8 70-35 77-18 4-61-18-67-35-12-37 9-86 24-118 13-27 27-51 52-68 14-10 35-14 46-22M468 1096c-57-2-114-4-170-12 17-25 19-53 36-79 16-24 35-47 49-72 16-27 35-51 48-78 14-26 38-42 66-48 14-4 69-12 78 5 8 14 22 23 30 39 14 29 25 61 39 91l24 52c6 13 7 25 11 39 4 12 15 20 20 30 5 8 14 24 8 34-3 4-7 4-12 6-6 2-11 7-19 8l-18 1c-11 0-21-1-31-3-18-3-35-1-53-2-28-2-53-9-81-10l-25-1z" fill="#44312D"></path><path fill="#DF7861" d="M2204 986c-10-8-20-15-31-20-6-2-10-4-15-8l-20-10c-27-7-54-11-80-18a269 269 0 0 0-46-13l-13-3c-7-3-13-5-20-4-24 3-43 18-61 33l-24 18a275 275 0 0 0-70 79l-4-2a278 278 0 0 1 72-80l23-18c19-15 38-31 64-34 7-1 14 2 21 4 4 1 8 3 13 3l12 3-1-1c-9-6-18-16-29-21-21-10-48-22-72-22-15-1-23 10-37 1-11-7-16-19-30-21 19-56-45-74-68-110-5-9-8-20-15-28-6-9-16-13-24-20-7-6-15-17-19-26-5-12 0-21 0-33-2-46-8-96-26-137-9-20-14-43-27-61-12-18-14-38-19-59-5-17-7-35-12-51-6-17-16-27-27-40l-18-27a144 144 0 0 0-49-45l-12-8c-16-9-35-16-53-16-12 0-22 6-33 6h-48c-14 0-28 4-43 3-25-1-52-4-77-3-67 3-132 20-198 20-28 0-48-12-66-31-8-9-15-18-21-28-6-9-7-19-15-25-22-16-65-13-90-12l-49 2c-20 0-37-12-57-14-14-1-28 6-42 9-21 3-42 6-63 11-29 7-63 13-89 29-21 13-40 31-58 48-17 16-33 31-45 51-16 27-27 58-27 90-1 12 2 23 3 35 0 13-3 26-2 39l3 61c1 26 9 49 20 72 9 19 9 34 12 54l8 63c1 16-1 33 3 48l5 24c1 5 2 6 0 10l-4 10c-3 10-3 22-4 33-1 8-2 16 2 24 2 3 4 5 5 9v12c2 7 9 15 12 23 4 9 10 16 12 25l9 31 2 13v24c0 6-1 12 1 17 2 7 7 15 11 21l13 15c4 4 6 8 9 13l11 15 3 6c2 3 4 4 5 8l6 8c4 5 10 8 16 12 14 12 27 25 42 35 12 8 32 6 45 7 24 1 48-6 72 1l25 5 28 10c10 2 18 6 27 11 2 2 4 5 7 5 5 1 11-3 17-2s12 4 17 8c4 3 9 8 12 13 6-1 16 5 22 6l27 3c12 1 24-2 36 0 13 2 26 7 39 10l18 4c12 2 24 3 36 7l37 10c20 7 39 15 59 21-6-10-10-25-11-27l-1-14-1-8-1-7c-2-16-4-31-2-47 2-18 4-36 10-54l5-18c3-11 6-22 11-33l11-27c9-28 18-54 46-70l4-3c16-10 29-18 50-16 11 1 14 4 20 10l1 2c15 14 40 20 63 13 6-1 12-4 17-6l17-6c11-3 18-1 26 2l9 2c9 2 16 2 25 0l5-2c19-5 40-11 59-6 15 4 29 16 38 35a139 139 0 0 1 7 105l-3-2c5-14 7-31 6-52-2-29-18-75-49-82-18-5-39 1-57 6l-5 2c-9 2-18 2-27 0l-10-3c-7-2-13-4-22-1-6 1-12 4-17 6l-18 6c-24 7-51 1-66-14l-2-2c-6-6-8-8-17-9-20-2-33 6-48 15l-4 3c-26 16-35 41-45 68l-10 28c-5 10-8 21-11 32l-5 19c-6 17-8 35-10 52-2 16 0 31 2 46a1380 1380 0 0 1 3 29c2 8 7 23 13 30l25 5 40 8c19 3 36 15 55 18l45 3c6-10 10-21 21-25 9-3 21-2 30-3 10 0 20-3 30-5 21-5 44-11 65-12l-2-5-8 2 8-3v1c9-4 19-11 16-17l-16 6c-5 2-8-3-7 5-12 2-31-12-41-17-16-9-20-19-16-36 5-22 12-44 15-65 2-17 10-35 12-54 13-1 25 4 37 8s22 4 34 6c21 3 37 25 60 26 13 1 28-3 42-3 43 0 87 4 130-6 9-1 18-6 27-6 8-1 17 1 26 2 15 2 23-3 37 2 17 7 33 18 50 24l17 3 15 3 24 3c8 1 20 4 18-9-1-13-23-22-20-36 1-4 8-8 9-11 21-4 46-32 61-45 21-17 20-8 41 1 17 7 38 5 54 8 15 3 31 0 46 3 7 2 23 7 26 14 7-11 12-25-1-35z"></path><path fill="#D4E2D4" d="M1414 1299c44 11 87 28 132 40l86 25c24 7 49 8 73 17 19 7 36 13 56 15 19 3 37 8 56 12l43 10a2388 2388 0 0 0 108 31c15 4 27 7 42 8 13 0 35 9 47 2 12-6 0-17-4-26-8-17-21-21-38-24l-67-12c-44-8-84-22-125-39-23-10-45-23-69-29-26-6-53-5-79-9-38-6-77-5-114-15-27-7-46-26-72-34-8-3-116-16-109-31-14-10-19 28-9 39 10 12 28 16 43 20z"></path><path fill="#C5D4C5" d="M1598 1313c-14-2-27-5-41-9l-36-10c-17-6-34-12-52-16l-24-4c-4 0-7-2-10-3l-11-2-11-2-9-1-17-4c-7-1-21-5-20-16 1-8 9-10 16-12 17-7 34-7 51-11 37-7 76-20 115-11 19 4 36 8 56 9 6 0 17-1 22 1h-6c7 9 59-18 71-23 30-11 61-17 91-27 18-5 26-17 44-24l60-23c43-16 89-29 135-34 28-2 58-4 84 8 12 6 41 10 48 24 4 6-1 15-1 22 0 16-2 25-7 40-11 31-15 65-30 95-11 22-19 45-27 69-5 12-10 24-13 36-1 4 0 7-2 11l-8 13c-2 6-1 14-8 16-5 2-15-4-20-6l-19-5c-38-11-77-12-115-24-41-13-82-21-122-34-38-13-80-15-118-27-19-6-38-9-57-14l-9-2z"></path><path d="m1794 1378-1 13c28 3 55 16 83 19l4-17-43-8-41-11m119 33-4 14c4 0 48 9 47 11 2-4 3-10 3-15l-38-10-6-1m86 22c-1 5-2 13-5 17l-25-9 5-14M1773 1317l14 4 14 7c11 1 28-6 39-10l36-10 29-9s-18-12-28-11c-13 1-28 7-42 8-19 8-45 15-66 19m175-43c-11 1-21 6-32 8 6 5 20 14 22 14l36-6c6-1 11-5 17-5-2-6-6-11-9-16-10 4-24 3-34 5zm-98 61 25-9 25 9-25 11c-3 2-1 4-29-10m57-14 21 10s17-6 22-11l-5-4c-4-2-12-10-20-7-6 2-15 9-21 10m57-19 20-5c8-2 20 4 27 10-7 6-35 9-37 10s-9 0-18-11m22 39c-1 0-16-11-24-9-6 0-11 4-17 5-7 2-15 3-22 7 3 3 11 10 15 11 4 2 12-2 16-3l18-5c5-1 15-6 14-6zm22-7c8 1 21-4 28-7 0-6-14-10-19-11l-7 1-13 3-11 3s1 0 0 0c5 6 14 10 22 11zm27-27c6 1 11 8 16 10l15-2c11-3 27-6 36-12-5-7-11-14-18-12l-23 7-8 3-15 6m-34 63c17-4 48-11 62-19-11-12-18-13-28-11l-47 12c-6 3-21 3-24 9 14 8 27 14 37 9zm66-33c7 5 5 6 12 4 8-1 17-5 24-9-3-3-8-4-9-8l-27 7-5 3m-22 39c5-1 23-9 42-13l6 17c-4 2-12 3-18 4l-20 6c-7 3-9 2-16-2l-13-7 13-4m80-173c9-6 21-10 30-16 4 13 18 19 1 28-4 2-13 7-17 7-8 0-2-1-6-4-5-2-10-7-11-10" fill="#44312D"></path><path fill="#EDA38F" d="m1185 1185-1-9-1-7c-2-15-4-30-2-46 2-17 4-35 10-52l5-19c3-11 6-22 11-32l10-28c10-27 19-52 45-68l4-3c15-9 28-17 48-15 9 1 11 3 17 9l2 2c15 15 42 21 66 14l18-6c5-2 11-5 17-6 9-3 15-1 22 1l10 3c9 2 18 2 27 0l5-2c18-5 39-11 57-6 31 7 47 53 49 82 1 21-1 38-6 52l4 2a139 139 0 0 0-8-105c-9-19-23-31-38-35-19-5-40 1-59 6l-5 2c-9 2-16 2-25 0l-9-2c-8-3-15-5-26-2l-17 6c-5 2-11 5-17 6-23 7-48 1-63-13l-1-2c-6-6-9-9-20-10-21-2-34 6-50 16l-4 3c-28 16-37 42-46 70l-11 27c-5 11-8 22-11 33l-5 18c-6 18-8 36-10 54a200 200 0 0 0 3 54l1 8 1 14c1 2 5 17 11 27l6 2c-6-7-11-22-13-30l-1-13z"></path><path fill="none" stroke="#EDA38F" stroke-width="4" stroke-miterlimit="10" d="M663 349c6 4 8 13 13 18l19 16c9 7 16 11 26 16 37 17 59 57 75 93 3 7 21 35 8 39"></path><path fill="none" stroke="#EDA38F" stroke-width="4" stroke-miterlimit="10" d="M773 496c20 27 48 45 64 76 15 28 26 59 30 89l3 39c1 5 4 9 6 14 1 5 0 15 3 19s10 5 14 9l11 17c8 12 9 19 9 34"></path><path fill="none" stroke="#EDA38F" stroke-width="4" stroke-miterlimit="10" d="M687 732c18 12 39 25 60 31 17 5 36 6 53 10 18 4 37 11 56 14 18 3 37 1 53 5l41 8c9 2 14 4 20 10 11 9 21 19 31 30 10 10 18 24 23 38 7 16-2 27-1 43"></path><path fill="none" stroke="#EDA38F" stroke-width="4" stroke-miterlimit="10" d="m814 894 16 10c7 3 14 3 21 5l28 7c25 5 49 3 75-2 12-2 27-7 40-5 10 2 20 8 29 13 18 10 29 17 50 13a162 162 0 0 1 82 6l13 5 9 10"></path><path fill="none" stroke="#EDA38F" stroke-width="4" stroke-miterlimit="10" d="M1059 1036c12 5 40-18 49-27 15-15 32-26 49-38 23-16 49-45 79-38 4 1 8 0 8 4m338-675c4 10-7 36-9 48-3 15-8 30-9 45-2 34-3 67 2 101 5 35 14 69 13 106-1 36-7 70-7 106 0 12 2 24 0 36l-4 26c-1 9-1 19-3 28-2 10-6 20-7 30-2 22 5 42 3 63-2 18-2 37-2 57v7m22 12c9-8 19-24 28-34 6-6 13-8 19-12 5-4 8-9 12-14 10-11 23-16 34-26 11-11 25-20 40-25 5-2 14-5 19-3"></path><path fill="#EDA38F" d="M2000 910c-7-2-14-5-21-4-26 3-45 19-64 34l-23 18a278 278 0 0 0-72 80l4 2a275 275 0 0 1 70-79l24-18c18-15 37-30 61-33 7-1 13 1 20 4l13 3 29 7-16-8-12-3c-5 0-9-2-13-3z"></path><path fill="#ECB390" d="M1976 1091c-2-3-25-22-24-24v1c6-14 13-24 25-35l31-29c11-10 24-20 38-27 10-5 19 1 30 4 14 4 29 5 44 7 14 1 28 5 42 8 13 2 25 4 37 9 3 1 13 4 15 7 2 5-7 22-9 26l-15 36c-12 24-29 36-33 63-2 16-2 33-9 46-14-1-20-14-33-20-15-7-30-6-46-8-22-4-31-22-49-32-7-4-15-4-22-8-9-5-16-16-22-24z"></path><path fill="#ECB390" d="M1438 1153c0-13 1-35 4-47 2-8 4-11 4-19 1-22 20-40 26-61 8 7 19 4 29 7l29 10c22 7 48 6 72 6 57 0 114-2 171-7l45-4c12-1 18 3 28 9 9 5 20 6 30 10l23 7 42 14c16 6 33 11 48 19 14 7 21 20 30 31 10 13 19 25 32 35 22 18 47 29 66 50 8 10 14 10 11 23-3 15-11 27-16 42l-14 46c-10-5-21-6-30-13l-19-14-11-12c6 5-13 20-16 21-9 6-18 8-28 4-10-5-20-13-30-20-8-6-15-7-24-11-14-8-25-18-40-23-16-6-30-18-44-20l-7-4c11 7 19 17 31 23 9 5 19 10 22 21 5 23-29 32-45 30-22-1-41-14-60-23-11-5-25-11-38-13l-57-9-32-5c-27-7-54-4-80-10l-51-11c-14-3-26-9-39-15-7-4-14-6-21-8-7-4-13-6-19-11-7-5-23-11-23-11l1-32v-5z"></path><path fill="#EDA38F" d="M1441 1111a101 101 0 0 1 8-39c5-15 13-30 20-45l2-4c7-13 15-20 25-29l4-5 5-5c12-11 24-23 42-23v4c-17 0-28 11-39 22l-5 5-5 5c-9 9-16 15-23 28l-2 4c-8 15-16 29-20 45l-2 5-10 29v3z"></path><path fill="#44312D" d="M1252-14s-51 63-55 103 13 36 25 72 9 71 37 101 65 50 69 82 6 41-10 74c0 0 20 11 61-38s15-21 15-21 4 0-2 24c0 0 12 0 27-12s9 0 6 9 16-26 39-65 16-24 25-54 12-48 20-97 13-26 37-70 25-61 30-108"></path><path fill="#ECB390" d="M982-14s-27 79-24 108 7 64 36 89 46 58 92 61 38-12 81-16 39-3 67-18c0 0-7-73 0-104s10-47 24-77c0 0 31-3 70-43H985"></path><path fill="#44312D" d="M762-14c-9 54-13 79-7 94s10 26 39 46c0 0-6 24 18 53s26 19 44 34c0 0 9 52 44 75s65 36 109 21 59-47 64-65 4-18 0-34-8-24-15-37c0 0 1 15-11 31s-43 43-58 28-36-28-18-73 41-50 51-92 15-31 9-81H775"></path><path fill="#D4E2D4" d="m2714 1330-45 9c-20 4-40 5-59 10l-115 29c-84 22-171 29-254 54-38 12-75 31-116 31l-54 2c-4 0-45-5-44-6l13-42c4-12 7-25 13-36 11-18 16-40 24-60l26-67c13-42 25-81 41-121 10-22 18-44 26-66 12-31 22-63 33-94l16-45c8-16 14-31 19-47 5-14 12-27 16-41l17-63c6-19 15-36 21-55 8-21 11-43 19-65 6-18 11-36 15-55 9-42 24-79 50-114 10-15 19-26 37-31 17-6 36-5 55-7 40-4 78-3 119-3 22 0 44-3 67-3l37 1 23 2"></path></svg>