<svg xmlns="http://www.w3.org/2000/svg" viewBox="0 0 1740 334.42"><path fill="none" stroke="#E0785D" stroke-width="6" d="M16 368.42c-9.204-15.471 38.139-44.243 47.319-51.326 20.112-15.518 38.139-27.707 61.192-38.405 41.645-19.327 90.598-29.398 136.792-25.368 32.088 2.8 64.37 12.021 93.557 25.587 28.289 13.148 56.753 26.749 88.31 29.731 32.8 3.101 65.888 7.849 99.151 7.777 76.984-.164 162.149-40.144 221.205-88.247C816.444 185.064 872.737 128.741 942 116.42"/><path fill="#EBB390" d="M990.177 179.101c-6.595.826-13.105 2.001-19.808 1.986-3.618-.008-7.266.143-10.859-.33-2.722-.358-4.64-1.529-7.037-2.674-3.111-1.484-6.986-2.142-10.261-3.17-3.209-1.009-6.333-2.507-9.591-2.493-2.16.009-3.339-.9-5.125-1.431-1.414-.419-2.703-.586-3.885-1.461-1.04-.769-1.652-1.973-2.908-2.478-2.553-1.028-5.275-.144-7.785.365-3.18.645-6.397.771-9.521 1.746-8.314 2.592-16.319 6.455-23.582 11.254-6.329 4.183-12.192 8.79-14.312 16.529-2.248 8.204-5.291 16.809-3.809 25.412 1.271 7.379 10.556 10.156 17.306 11.729 1.362.489 1.074.259 2.328.896 1.455.739 2.667 2.034 4.165 2.75 4.025 1.922 7.923 4.779 12.253 5.833 5.736 1.395 11.646 2.036 17.409 3.319 8.402 1.87 15.17 4.461 23.862 4.535 14.207.121 29.807-.529 43.169 2.831 10.88 2.735 28.757 3.807 40.146 1.182 5.852-1.349 11.094-4.087 14.858-8.826 3.715-4.675 8.296-9.076 10.114-14.932 1.607-5.174 1.782-10.629 3.143-15.795.477-1.811 2.8-7.223 1.252-8.83-4.122-4.282-8.231-8.576-12.479-12.735-2.425-2.374-4.887-4.711-7.423-6.967a122.598 122.598 0 0 0-3.678-3.157c-.953-.784-2.891-1.72-3.5-2.751-2.911-.545-6.124-3.428-9.171-3.422-2.346-.898-5.012-.042-7.611.069-4.826.206-9.699.154-14.648.666-1.005.106-2.009.224-3.012.35z"/><path fill="#EBB390" d="M1096.85 108.459c-9.959-7.795-19.492 5.271-30.416 10.253-17.419 7.942-41.154 11.672-60.37 16.555-21.02 5.343-43.222 15.998-64.729 16.507-4.247.101-9.129-.785-13.002.313l-2-1.334c.119.079-3.901 7.412-4.157 8.272-2.466 8.295-5.587 16.404 1.528 23.22 5.47 5.24 13.478 7.603 20.729 9.028 4.771.938 9.653 1.481 14.518 1.495 12.785.037 23.241-8.25 35.417-10.161 4.555-.716 9.059-1.727 13.597-2.541 2.445-.438 4.904-.852 7.375-1.116 1.8-.192 3.548-.04 5.317-.565 4.816-1.43 9.814-2.144 14.633-3.737 4.3-1.422 8.519-3.167 12.88-4.396 13.01-3.669 25.888-9.985 38.479-14.517 11.161-4.017 25.228-15.842 25.05-28.685-3.975-6.199-8.735-13.805-14.849-18.591z"/><path fill="#CD906E" d="M958.95 192.769c-15.107-.045-46.758-6.157-38.617-27.349l-.021-.524c-.763.734-1.801 1.282-3.005 1.706-2.915.764-8.491 4.08-7.557 6.068.575 22.315 30.617 21.289 47.25 22.75 11.302.993 20.13-3.863 31-6.25 7.085-1.556 18.808-5.37 24.25-5.25s10.602.725 13.112-1.913c-3.004-2.272-3.089-1.962-6.216-3.382-8.181.438-17.605 2.855-24.779 3.982-12.176 1.912-22.632 10.199-35.417 10.162z"/><path fill="#EBB390" d="M1213 53.92c3.797 2.682 8.26 2.604 12.652 3.016 5.852.549 10.681 2.604 16.248 4.346 4.178 1.307 8.263 1.763 12.6 2.164 10.034.93 18.018 4.546 26.5 9.487 7.919 4.612 16.785 8.551 25 12.624 4.487 2.225 8.409 5.407 12.574 7.975 12.018 7.407 23.338 17.47 32.373 28.426 3.325 4.032 5.314 10.611 7.178 15.461 3.267 8.508 5.188 17.382 8.388 26.003 5.019 13.519 8.786 28.664 7.99 43.188-.736 13.439-3.963 26.567-6.394 39.798-4.228 23.013-10.336 47.721-21.644 68.391-5.804 10.608-20.521 33.856-34.462 33.873l56.246-.066 12.25-25.934 15.25-49.5 6.75-102-14.5-32.5-35.25-41.25-53-34L1232 50.688l-19 3.232z"/><path fill="#E0785D" d="M1232.387 28.769c15.479 1.599 30.971 5.206 46.63 6.634 16.24 1.48 30 5.983 43.478 14.7 11.018 7.125 22.982 13.117 33.322 21.169 23.295 18.14 38.575 38.44 52.035 64.114 5.085 9.699 5.379 20.664 8.444 30.701 3.191 10.446 3.759 20.435 4.853 31.331 1.077 10.739 3.887 21.011 3.852 32.002-.062 19.554-1.926 34.836-8.037 53.279-2.632 7.945-3.895 16.613-6.778 24.275-2.309 6.136-5.634 11.843-7.634 18.08-2.135 6.652-2.999 13.612-6.702 19.698a11.979 11.979 0 0 1-3.484 3.693c-9.864 0-28.274-.127-36.412-.127 5.969-4.227 7.771-13.103 10.512-19.418 5.654-13.032 13.864-24.938 19.236-38.131 7.437-18.265 8.368-37.028 10.3-56.351 2.229-22.296 2.965-50.645-5.249-71.774-4.866-12.515-12.982-23.847-19.502-35.475-6.725-11.993-15.72-22.449-27.277-30.5-22.979-16.006-51.376-32.547-78.955-37.733-14.323-2.694-25.926-4.983-40.182-4.499-5.629.191-22.358 4.154-26.372-1.191-5.528-7.378-2.755-20.742 5.579-23.762 8.706-3.153 19.358-1.643 28.343-.715z"/><path fill="#C55D49" d="M1125 53.42c2.185-5.938 2.894-14.465 6.113-21.22 13.104-3.401 26.807-8.5 39.704-14.113 9.525-4.146 27.358-12.39 30.063 3.034-14.086 7.678-34.274 7.711-46.643 17.545 2.606 5.583 3.391 15.149 2.762 21.421-.934 9.314-2.863 9.698-10 6-7.983-4.138-13.698-7.926-21.334-14"/><path fill="#E0785D" d="M927 152.753c0-11.004-.222-21.75 1.85-32.002 2.794-13.835 5.438-16.657 18.866-21.329 28.173-9.802 57.475-20.119 86.729-26.802 8.463-1.933 15.557-4.692 24.21-2.623 8.038 1.923 13.886.489 22.312-2.597 7.498-2.744 15.264-5.876 22.648-8.649 7.155-2.688 16.485-8.768 24.053-7.996 7.3.745 11.807 7.957 16.563 13.034-11.367-1.013-25.465 1.967-36.381 4.615-6.92 1.679-13.003 3.602-19.701 5.981-4.933 1.751-12.9 3.616-16.548 7.036 1.212-1.137 25.357 18.407 21.231 25.002-2.558 4.088-9.906 7.382-13.3 10.716-16.182 3.809-29.81 15.914-47.051 17.779-22.055 2.386-43.271 14.511-63.634 18.205-6.52 1.183-14.653 2.929-21.035 3.272-6.153.331-12.531-1.599-18.349-1.921-.621-.818-2.583-2.526-2.466-2.389M1145 37.42c6.818-2.934 14.191-4.971 21.302-7.353 8.493-2.845 17.2-5.884 25.472-9.229 5.53-2.236 9.832-6.292 11.227 1.917 2.051 12.063 7.328 21.511 9.565 33.418-11.367 3.438-22.239 7.65-33.751 10.947-9.358 2.68-18.094.115-27.716 1.548 2.361-8.825-.035-16.47-1.396-24.952-1.299-2.038-2.615-4.995-4.703-6.964M879 234.087c-.471 5.34 1.303 11.168 2.666 16 2.407 8.533 5.447 3.676 11.416 8.019-2.935 2.915-1.859 8.018-2.048 12.865-.258 6.635-1.47 8.347 5.299 10.598 10.344 3.44 22.559 3.562 33.333 5.185 10.865 1.637 21.851 2.923 32.675 4.775 9.012 1.544 13.53 7.89 21.108 12.915 12.452 8.259 26.605 15.438 40.383 21.222 10.533 4.423 20.55 9.752 31.042 13.914 4.835 1.918 8.12 6.242 13.15 7.676 4.849 1.382 9.583-.463 14.44-.03 3.986.354 7.596 1.832 11.752 2.025 11.758.545 23.605-.669 35.365-.796-6.047-5.271-17.895-7.163-25.413-10.204-14.151-5.724-29.777-11.858-42.487-20.146-9.313-6.073-18.239-11.958-27.347-18.349-5.841-4.099-10.829-10.699-16.57-13.804.268-3.011 2.027-6.72 3.74-9.196 4.002-5.789 9.735-.29 12.92-7.708 1.351-3.146 1.719-21.86 3.14-22.744-7.82 4.863-12.544 6.896-21.937 5.768-7.122-.856-14.938-4.074-22.151-3.34-13.216 1.351-26.03-1.985-39.646-2.314-13.382-.323-24.948-3.092-38-5.186-6.914-1.108-13.462-1.93-20.348-2.813-2.1-.271-5.581-.694-7.95-1.294-2.933-.742-7.967-3.136-7.346-2.883"/></svg>