<svg xmlns="http://www.w3.org/2000/svg" viewBox="0 0 1066.399 699.082"><path fill="#A79898" d="M177.378-14.245c-2.836.076-12.844 25.224-14.289 27.823-7.086 12.748-15.08 24.966-22.86 37.293-16.028 25.396-25.845 51.806-41.326 77.6-14.628 24.374-26.545 50.215-38.851 75.801-11.401 23.708-24.72 46.198-36.489 69.543-4.017 7.967-10.502 16.211-10.828 25.187-.304 8.367 5.202 21.952 10.513 27.995 11.603 13.2 28.187 20.115 43.137 28.517 11.353 6.381 23.922 10.606 35.488 16.609 10.302 5.346 21.019 11.96 32.104 15.475 24.365 7.725 47.804 18.747 71.298 28.514 7.593 3.156 15.162 5.855 22.513 9.387 7.288 3.502 15.166 5.469 22.235 9.488 5.674 3.226 11.411 6.07 17.24 8.988 14.327 7.173 28.688 14.173 43.513 20.125 7.936 3.186 15.233 8.06 23.111 11.414 14.874 6.333 28.73 14.771 43.537 21.11 8.075 3.457 16.634 6.169 24.475 9.988 14.489 7.057 28.305 16.062 43.712 21.056 26.944 8.735 53.09 18.795 79.735 28.405 17.375 6.267 33.9 15.282 50.952 22.426 19.075 7.991 38.398 14.832 57.226 23.004 5.598 2.43 11.097 5.381 16.89 7.387 11.427 3.957 23.024 8.814 34.011 13.973 10.624 4.987 20.528 11.761 30.975 17.027 17.115 8.629 36.691 14.893 56 14.889 13.095-.002 18.059-2.246 27.826-11.304 9.103-8.442 16.062-19.449 22.951-29.677 15.607-23.173 28.822-48.311 39.992-73.9 10.801-24.743 26.617-47.563 35.958-72.874 9.664-26.179 26.085-50.158 37.771-75.498a876.337 876.337 0 0 0 13.365-30.54c4.401-10.59 11.078-19.885 15.637-30.36 7.683-17.655 17.904-34.814 24.363-52.842 4.916-13.722 11.291-27.126 17.676-39.905 3.585-7.174 5.541-15.216 9.347-22.361 2.669-5.01 5.44-10.304 7.489-15.504 3.688-9.357 7.122-19.622 9.111-29.514 1.959-9.738 2.841-19.801.379-29.539-.951-3.766-1.082-8.65-3.251-11.772-2.507-3.609-7.511-5.149-10.614-8.187L633.146-14.184l-455.768-.061z"/><path fill="#897977" d="m678.649-14.184 15.105 6.528L732.82 9.226A2184562.392 2184562.392 0 0 0 845.335 57.85l54.699 23.638 41.161 17.788c3.895 1.683 7.629 3.89 11.595 5.387 3.62 1.366 7.674 1.115 11.414 2.281 2.78.867 5.408 1.824 8.138 2.875 2.764 1.063 5.518 2.252 8.299 3.245 1.636.583 3.128 1.313 4.763 1.938 4.059 1.55 7.932 3.514 11.994 5.188 8.499 3.502 17.267 6.378 25.445 10.38 3.056 1.496 6.015 3.45 9.25 4.236 4.001.973 7.983.28 11.805-.86 3.931-1.173 7.992-2.174 11.506-4.514 3.696-2.461 6.372-7.086 8.433-10.999 3.594-6.828 6.597-13.879 9.624-20.932 1.523-3.549 2.63-7.248 3.71-10.95.914-3.135 3.085-7.072 3.228-10.3v-91l-401.75.565z"/><path fill="#9D5D46" d="M1074.604-14.335c-2.021 2.645-4.489 6.025-5.698 9.094-.717 1.819-1.743 3.429-2.555 5.236-1 2.229-1.218 4.416-2.407 6.718-5.309 10.27-9.979 20.566-16.732 30.045-5.746 8.063-8.691 18.039-14.812 25.993l-4.031 8.286s-6.969 4.214-9.719 3.214L835.4-14.183h180.5l58.704-.152z"/><path fill="#44312C" d="M836.526-14.574c2.435 0 6.275 2.836 7.679 2.921.503.345.972.542 1.5.77 8.472 3.649 16.897 8.301 25.201 12.195 13.653 6.4 28.428 10.877 42.549 16.188 7.831 2.944 14.924 7.237 22.707 10.306a231.26 231.26 0 0 1 23.552 10.868c5.9 3.147 12.023 5.504 18.182 8.276 2.692 1.212 5.082 2.999 7.723 4.305 2.187 1.082 4.561 1.595 6.714 2.746 8.002 4.277 16.2 7.872 24.506 11.555 2.151.954 4.438 1.653 6.554 2.673 1.547.746 3.208 2.434 4.977 2.807-.922 4.164-3.241 7.91-5.17 11.659-2.879 5.602-6.147 12.028-9.867 17.28-1.352-1.068-3.257-1.605-4.749-2.406-2.058-1.105-3.977-2.924-6.108-3.893-2.915-1.325-5.346-2.54-8.124-4.243-2.812-1.725-5.648-3.021-8.519-4.682-7.158-4.141-14.973-7.062-22.362-10.805-3.9-1.976-7.486-4.097-11.325-6.195-8.813-4.817-17.902-8.766-26.83-13.296-11.136-5.651-22.203-11.27-33.47-16.704-7.31-3.525-14.19-7.786-21.501-11.195-6.069-2.831-12.278-5.366-18.247-8.411-5.543-2.828-10.292-6.061-16.109-8.449-3.307-1.357-6.688-2.708-10.05-3.902a117.88 117.88 0 0 1-16.536-7.34c-7.662-4.126-14.985-8.961-22.251-13.202-.003-.002 46.94.174 49.374.174zM549.001-14.398c-2.202.959-11.787 17.552-10.465 18.277 6.853 3.756 14.733 5.835 21.839 9.122 6.444 2.98 17.889 9.461 24.938 8.413 2.589-6.215 7.135-11.545 9.044-18.043-10.192-5.162-21.17-8.691-31.957-12.76-2.778-1.049-10.509-6.268-13.399-5.009zM612.767 35.344c1.496.568 3.026 1.038 4.463 1.786.91.474 9.945 4.836 10.466 3.799 1.047-2.087 3.098-3.883 4.375-5.925.61-.976 7.154-11.043 5.246-11.904-2.128-.96-4.559-1.341-6.755-2.221-2.104-.842-4.151-2.051-6.163-3.088-2.236-1.153-4.566-1.967-6.823-3-3.887-1.778-7.568-4.064-11.477-5.862-3.072-1.414-5.262-3.101-7.057.665-1.697.895-2.554 5.399-3.272 7.11-.977 2.325-2.235 4.572-3.35 6.592-.155.289 11.224 6.915 12.45 7.583 2.066 1.126 3.922 2.622 6.028 3.666.611.303 1.237.559 1.869.799zM645.232 27.333c-1.888.902-3.755 5.105-5 7.058-.831 1.302-2.157 2.527-2.991 3.96-.734 1.261-1.125 2.535-1.879 3.787-.752 1.25-1.355 1.462-.089 2.659.832.787 2.308 1.614 3.298 2.328 2.449 1.767 5.336 2.976 7.995 4.33 5.292 2.694 10.153 6.502 15.866 8.045 2.629.71 4.75 2.1 7.296 3.125.653.263 1.356.255 2.004.542.334.148 1.202.992 1.492 1.007 1.197.064 1.757-1.743 2.212-2.633 1.25-2.447 2.724-4.763 3.963-7.199.604-1.185 1.24-2.334 1.662-3.513.394-1.097.51-2.594 1.276-3.373-1.827-.689-3.329-2.204-5.105-3.159-2.423-1.304-5.31-2.318-7.786-3.782-4.429-2.616-8.887-5.345-13.484-7.256-2.528-1.051-4.767-2.627-7.05-3.915-1.323-.747-2.571-1.164-3.846-2.01M690.399 50.167c-.805 1.853-2.169 3.487-3.167 5.234-1.24 2.172-1.88 4.424-2.987 6.582-.719 1.401-2.403 2.947-2.683 4.355-.418 2.106 2.714 2.93 4.39 3.671 2.624 1.162 5.493 2.066 7.946 3.528 2.517 1.498 4.756 2.785 7.524 3.918 2.582 1.057 5.258 2.068 7.723 3.254 1.635.787 3.902 2.381 5.717 2.495 2.684.168 5.065-4 6.283-5.861 2.015-3.079 3.293-6.257 5.462-9.26 1.442-1.996.802-2.493-1.208-3.749-1.756-1.098-3.715-1.543-5.667-2.204-3.599-1.218-6.743-3.191-10.175-4.763-6.185-2.831-13.076-4.747-18.78-7.826-.252.483-.552.852-.878 1.292M736.896 69.168c1.146 1.379 5.063 2.925 7.042 3.796 3.152 1.389 6.176 3.097 9.316 4.533 3.908 1.787 8.173 3.004 12.116 4.705 3.23 1.393 6.385 2.986 9.529 4.433 1.792.826 2.368 1.053 1.697 3.104-.525 1.607-1.655 3.017-2.493 4.466-1.563 2.707-3.742 5.034-5.342 7.753-.447.761-1.023 2.955-1.899 3.342-.871.385-2.726-.772-3.504-1.096-3.418-1.422-7.247-3.168-10.541-5.041-8.277-4.707-17.606-7.795-26.405-11.38.23-1.052 1.293-2.502 1.986-3.616 1.148-1.843 1.998-4 3.002-5.962 1.544-3.018 3.596-6.104 5.328-9.038M814.704 105.302c2.613 1.205 5.446 1.868 8.043 3.117-1.762 2.702-3.068 6.49-4.391 9.462-1.35 3.031-3.216 7.154-5.794 9.304-.624-.379-1.372-.49-2.008-.851-2.972-1.685-5.415-3.534-8.591-4.87-3.018-1.269-5.885-2.912-9.022-3.964-3.47-1.164-6.729-2.694-10.331-3.792-3.55-1.081-6.934-2.539-9.897-4.537 1.021-2.711 2.678-5.483 4.559-8.125 1.552-2.18 4.315-9.192 7.063-9.467 3.331-.333 7.478 4.009 10.521 5.097 2.881 1.03 5.774 1.983 8.721 2.996 4.075 1.402 7.361 3.893 11.127 5.63zM826.362 118.537c-.838 1.457-1.653 2.539-2.299 4.19-.741 1.893-1.816 3.458-2.5 5.302-.283.764-.753 1.999-1.309 2.765 6.182 3.463 12.743 6.34 19.399 9.042 4.815 1.955 8.856 5 13.908 6.625 1.249.402 1.126.726 2.041-.292.562-.626.859-1.805 1.251-2.537 1.301-2.433 2.052-4.569 2.924-7.133.94-2.764 2.063-5.615 2.925-8.297-4.571-2.06-9.26-5.141-14.304-7.316-5.029-2.17-9.438-4.415-14.176-7.06-1.034-.577-3.57-2.271-4.82-1.642-1.919.972-2.059 4.648-3.04 6.353zM898.267 164.515c-.827 1.277-.873 3.504-2.485 3.513-1.127.006-2.574-1.48-3.512-2.026-3.21-1.869-6.193-4.182-9.472-5.903-7.217-3.789-15.149-5.705-22.052-10.137 2.604-3.772 4.208-8.116 6.335-12.152.512-.972 2.379-5.301 3.556-5.453.475-.061 1.974 1.235 2.527 1.479.897.396 1.873.612 2.79.959 2.234.845 4.345 2.07 6.543 3.036 4.369 1.92 8.521 3.955 12.722 6.079 3.445 1.742 6.829 3.229 10.015 5.385 1.661 1.124 1.814 1.301.658 2.833a32.898 32.898 0 0 0-3.793 6.416c-.96 2.122-2.586 4.047-3.832 5.971zM909.06 164.595c-1.4 2.402-3.156 4.799-4.324 7.297 1.215.962 2.7 1.954 4.111 2.643 3.117 1.522 6.465 3.338 9.609 5.123 4.726 2.682 9.997 3.681 14.864 5.966 2.188 1.027 4.089 2.03 6.282 3.036 1.047.479 2.316 1.094 3.757 2.085 3.103-3.876 5.383-8.745 7.659-13.352.532-1.079 2.295-3.393 2.244-4.483-.039-.815-2.031-1.56-3-2.124-3.098-1.803-6.398-3.439-9.703-4.908-5.325-2.366-10.5-5.051-15.771-7.535-2.602-1.226-5.224-2.416-7.9-3.47-1.621-.639-1.674-.877-2.678.45-.675.893-1.009 2.189-1.489 3.197-1 2.102-2.497 4.079-3.661 6.075zM932.292 220.641c-2.645 4.176-4.772 8.644-7.468 12.792-.86 1.325-1.646 3.386-3.479 3.26-1.643-.112-3.751-2.32-5.123-3.161-2.103-1.29-4.777-1.909-7.009-3.038-2.94-1.488-5.881-2.98-8.947-4.069-3.273-1.163-6.001-3.532-9.165-4.967-8.942-4.055-19.243-6.774-26.908-13.135 2.366-4.082 4.312-9.477 6.482-13.997 1.859-3.875 4.389-7.571 6.616-11.255 1.102-1.822 2.272-3.602 3.406-5.404.911-1.449 1.737-3.752 3.02-4.893 2.296-2.042 7.218 1.272 9.551 2.355 3.411 1.583 6.981 2.786 10.471 4.257 3.231 1.364 6.71 2.631 9.8 4.229 3.501 1.809 6.721 3.651 10.4 5.009 3.842 1.418 7.625 3.175 11.287 5.087 2.002 1.045 8.214 2.37 7.713 5.459-.294 1.811-1.747 3.75-2.384 5.402-.887 2.298-1.752 4.63-2.738 6.906-1.486 3.427-3.562 6.063-5.525 9.163zM854.888 157.625c5.786 2.214 16.937 6.948 16.79 8.155s-6.205 14.032-10.108 21.443c-1.941 3.688-3.012 13.354-8.645 13.277-9.768-.133-19.359-9.803-28.176-13.208-.801-.31-2.8-1.906-2.8-1.906s5.998-11.201 8.451-17.386c1.479-3.727 6.781-15.032 9.541-16.335 5.124.038 10.298 4.181 14.947 5.96zM804.002 178.583c-1.364-.818-2.748-1.601-4.269-2.208-1.842-.734-3.558-1.879-5.367-2.681-2.173-.963-4.522-1.557-6.633-2.657-1.657-.864-3.393-1.592-4.991-2.533-1.434-.843-3.771-1.386-3.883-3.278-.105-1.802 1.677-4.51 2.48-6.043 2.247-4.289 5.086-8.253 7.06-12.687 1.225-2.751 2.756-5.513 4.043-8.225.694-1.462 1.471-2.97 2.245-4.208 1.537-2.455 2.316-3.445 5.109-2.291 2.089.864 3.95 2.177 5.94 3.231 2.555 1.352 4.893 3.315 7.533 4.463 2.779 1.209 5.638 2.225 8.418 3.575 2.67 1.295 5.378 2.775 8.02 3.981-.355 2.048-1.912 4.667-2.766 6.699-1.399 3.329-2.805 6.508-4.542 9.654-2.411 4.365-4.551 8.865-7.122 13.176-.853 1.43-1.926 3.004-2.915 4.416-1.221 1.742-1.755 1.211-3.324.473-1.785-.839-3.396-1.873-5.036-2.857zM773.188 161.579c-.544 1.125-.859 2.539-2.182 2.826-1.197.26-3.301-1.042-4.402-1.446-5.715-2.09-10.562-6.041-15.87-8.829-2.579-1.354-5.345-2.352-7.88-3.759-1.791-.994-3.463-2.173-5.314-3.059-2.128-1.019-1.606-1.334-.427-3.404 2.984-5.231 5.286-11.521 8.954-16.779 3.126-4.481 6.057-9.093 9.1-13.629 1.471-2.192 2.21-2.196 4.703-1.446 2.15.647 4.19 1.613 6.29 2.402 2.976 1.116 5.742 3.042 8.533 4.583 2.864 1.582 5.724 2.883 8.546 4.505 1.784 1.024 3.86 1.524 5.582 2.667.978.649 1.38.881 1.22 1.919-.145.934-1.395 2.526-1.849 3.432-.671 1.338-1.651 2.777-2.256 4.139-1.441 3.253-2.473 6.547-4.406 9.719-1.753 2.875-3.123 6.26-4.675 9.111-1.273 2.336-2.55 4.735-3.667 7.048zM731.072 136.533c-.739 1.265-1.404 2.573-2.152 3.833-.849 1.431-.85 1.903-2.357 1.635-2.499-.444-4.777-2.656-7.158-3.542-3.212-1.194-6.443-2.596-9.662-3.955-3.437-1.451-6.92-2.914-10.246-4.537-1.55-.756-3.035-1.612-4.596-2.338-.987-.459-3.741-.904-4.23-1.994-.466-1.041 1.39-3.472 1.911-4.529 1.649-3.345 3.15-6.77 5.017-10.004 1.744-3.023 3.825-5.538 5.469-8.681 1.484-2.835 3.071-5.396 4.727-8.143 1.025-1.701 2.646-4.019 4.105-5.349 1.045-.951 1.101-.698 2.552.027a57.172 57.172 0 0 1 3.269 1.786c4.234 2.478 8.206 5.381 12.491 7.774 4.336 2.421 9.115 4.765 13.641 6.775 1.151.512 2.369.77 3.524 1.237.572 2.824-2.965 6.219-4.279 8.434-2.278 3.841-3.468 8.257-5.857 12.006-2.032 3.185-4.287 6.348-6.169 9.565zM684.774 120.327c-.374.732-1.082 2.53-1.898 2.837-.944.355-2.309-.687-3.242-1.023-2.542-.918-5.263-1.396-7.604-2.808-2.935-1.77-5.768-3.466-8.797-5.042-2.665-1.386-5.511-1.946-8.339-3.088-3.049-1.231-5.681-2.928-8.583-4.332-1.367-.661-2.609-1.023-2.614-2.575-.005-1.323.887-2.157 1.332-3.333 1.082-2.857 2.176-5.892 3.912-8.547 2.4-3.67 4.553-7.667 7.041-11.24 1.792-2.573 3.038-5.469 4.717-8.11.709-1.116 1.32-2.555 2.688-2.507 1.04.037 2.499 1.356 3.471 1.775 2.326 1.001 4.499 2.39 6.805 3.298 2.104.829 4.409.89 6.556 1.543 2.545.774 5.153 1.328 7.662 2.121 2.386.754 4.663 1.982 7.021 2.824 1.457.52 5.652 2.262 6.11 3.841.518 1.788-1.63 4.041-2.415 5.471-.907 1.654-1.373 3.587-2.196 5.313-1.074 2.252-2.271 4.405-3.288 6.705-1.716 3.881-3.634 7.535-5.536 11.299-.926 1.83-1.852 3.718-2.803 5.578zM625.196 52.836c1.365.589 2.791.595 4.204 1.029 2.526.778 4.933 2.041 7.332 3.129 3.66 1.661 7.257 3.431 10.996 4.879 1.955.757 6.965 1.678 6.463 4.209-.334 1.686-1.958 3.547-2.796 4.875-1.328 2.105-2.362 4.364-3.537 6.5-2.013 3.663-2.926 7.842-5.121 11.342-1.742 2.778-3.988 5.276-5.5 8.06-2.755 5.074-5.515 2.383-9.296.243-3.999-2.264-8.329-3.879-12.542-5.687-5.402-2.318-11.282-6.45-16.635-7.833 1.876-2.413 3.018-5.017 4.631-7.583 1.586-2.523 3.619-4.727 5.059-7.343 2.197-3.993 4.503-8.159 6.921-12.096 1.416-2.305 2.477-4.687 4.359-6.657.416-.354 4.79 2.643 5.462 2.933zM601.767 67.294c-1.197 2.554-2.729 4.919-4.241 7.312-1.387 2.193-2.801 5.678-5.847 5.992-1.729.178-3.281-1.453-4.647-2.261-1.871-1.105-3.534-2.229-5.299-3.506-3.309-2.396-7.032-4.468-10.49-6.663-2.547-1.617-5.298-2.727-8.005-4.037-1.208-.585-4.682-1.309-5.166-2.755-.43-1.281 2.229-4.346 2.945-5.511 2.227-3.621 4.538-7.379 6.847-10.83 2.934-4.384 5.352-9.109 8.552-13.315 1.411-1.854 2.048-2.851 4.432-2.112 2.316.718 4.355 2.154 6.596 3.056 3.978 1.602 7.443 3.827 11.291 5.629 3.228 1.512 6.63 3.019 9.658 4.904 2.139 1.332 5.715 2.371 4.765 5.364-1.062 3.346-3.595 6.436-5.73 9.171-2.25 2.881-4.097 6.226-5.661 9.562zM554.28 50.129c-1.472 2.372-3.739 4.248-4.742 6.857-2.688-1.058-5.284-1.893-7.926-3.112-3.122-1.441-6.07-3.207-9.191-4.654-3.288-1.525-6.401-3.294-9.554-5.05-1.923-1.071-4.039-1.844-5.819-3.16-2.853-2.108-1.315-3.113.348-5.602 1.894-2.837 3.602-5.652 5.305-8.633 2.503-4.382 4.74-9.038 7.367-13.322.66-1.076 1.514-2.027 2.12-3.138.379-.695.616-2.144 1.286-2.643 1.324-.984 5.42 1.866 7.062 2.739 5.098 2.708 10.031 5.707 15.031 8.587 2.448 1.41 5.008 2.282 7.512 3.541 1.2.603 4.327 1.378 4.595 2.95.414 2.461-2.881 6.105-3.904 8.375-1.138 2.525-3.197 4.512-4.39 6.987a99.99 99.99 0 0 1-5.1 9.278zM486.37 2.493c2.688-4.269 3.412-9.994 7.645-13.097 1.74-1.276 2.563-.729 4.429.114 3.651 1.648 7.146 3.623 10.794 5.281 3.27 1.486 6.438 2.854 9.663 4.504 2.534 1.297 5.792 2.75 7.851 4.288-2.697 4.295-4.521 9.125-7.359 13.382a117.93 117.93 0 0 0-5.454 9.038c-1.29 2.37-2.306 4.927-3.827 7.164-.79 1.162-3.354 3.45-3.396 4.552-2.078-1.025-4.62-1.384-6.813-2.35-3.224-1.418-6.678-2.294-9.839-3.908-3.245-1.657-6.412-3.418-9.653-4.991-1.979-.961-7.481-1.769-7.39-4.361.092-2.62 3.88-5.585 5.353-7.542 2.913-3.877 5.403-7.956 7.996-12.074zM482.568-14.335c-.831.785-1.586 2.665-2.375 3.825-1.373 2.016-3.154 3.698-4.468 5.797-2.159 3.45-4.426 6.832-6.949 10.049-.699.892-8.697 10.422-8.075 10.812-3.633-2.278-8.872-4.024-13-5.816-3.657-1.587-6.87-4-10.471-5.675-4.091-1.901-8.044-3.224-11.429-6.307 2.52-4.157 5.186-9.643 8.6-12.684h48.167z"/><path fill="none" d="M530.734-.168c.214-2.048 3.679-5.868 5.167-7.675 1.68-2.039 3.22-5.165 5.167-6.825"/><path fill="#44312C" d="M502.901-14.168c3.327.513 6.916 3.684 10 5.13 3.156 1.48 6.211 3.206 9.342 4.667 2.828 1.321 5.629 3.02 8.5 4.183.657.266 6.15-8.486 6.75-9.366.818-1.203 2.916-4.648 3.908-4.78l-38.5.166zM904.31 268.087c-.952 1.714-2.214 3.038-3.278 4.595-.765 1.117-1.078 3.266-2.497 3.792-.939.349-2.896-.797-3.795-1.133-1.63-.609-3.217-1.221-4.788-2.005-4.384-2.189-8.745-4.651-13.003-7.04-2.335-1.31-7.645-4.503-6.881-7.46.643-2.486 2.29-4.544 3.517-6.753 1.095-1.971 1.829-3.923 3.104-5.804 2.94-4.336 4.744-9.238 7.687-13.582 1.209-1.785 1.693-3.881 3.101-5.514.706-.819 1.16-1.985 2.374-1.987 1.09-.001 2.285 1.149 3.245 1.583 2.078.939 3.887 1.825 5.847 2.997 2.57 1.536 5.479 2.691 8.156 3.97 3.976 1.899 7.964 3.779 11.838 5.879 1.126.61 1.406.522 1.242 1.696-.135.967-.92 2.095-1.385 2.937-1.019 1.845-2.219 3.583-3.229 5.432-1.786 3.266-3.704 6.605-5.865 9.681-1.971 2.799-3.751 5.763-5.39 8.716zM872.39 239.832c-.174.349-.357.695-.558 1.035-2.145 3.652-4.051 7.379-6.052 11.108-1.469 2.738-2.988 5.933-6.549 4.902-1.412-.409-2.614-1.187-4.079-1.545-4.583-1.121-8.134-3.892-12.422-5.999-3.325-1.634-6.577-3.521-9.969-5.003-1.629-.712-4.72-2.182-5.531-3.842-.759-1.553.497-3.126 1.333-4.519 1.991-3.316 4.516-6.21 6.334-9.666 1.699-3.229 3.236-6.496 4.711-9.795 1.257-2.81 2.219-6.545 4.298-8.847 1.377-1.524 3.004-.935 4.587-.137 1.625.82 3.36 1.373 4.959 2.19 1.655.847 3.426 1.202 5.159 1.837 3.359 1.231 6.675 2.707 9.866 4.281 2.634 1.3 5.136 2.574 7.746 3.841 1.241.603 2.337 1.302 3.622 1.886 1.05.477-5.024 12.975-5.64 14.233-.653 1.342-1.159 2.715-1.815 4.04zM821.733 229.985c-1.087 1.592-2.267 3.125-3.327 4.677-.962 1.407-.628 1.548-2.204 1.471-5.398-.266-10.697-4.8-15.327-7.221-3.804-1.989-7.706-3.703-11.394-5.829-2.439-1.407-6.193-2.235-8.08-4.348-1.49-1.182 2.997-9.375 3.801-11.069 1.741-3.67 3.796-7.439 5.713-10.987 1.599-2.957 2.947-5.688 4.783-8.509 1.997-3.069 4.136-2.376 6.955-1.218 3.655 1.501 7.081 2.761 10.577 4.713 4.301 2.4 8.556 4.799 13.175 6.542 2.441.921 6.644 2.439 6.925 5.528.269 2.941-2.154 6.909-3.267 9.568-1.711 4.093-4.033 8.118-5.819 12.273-.668 1.553-1.554 3.005-2.511 4.409zM781.263 194.907a44.992 44.992 0 0 1-.91 1.646c-.641 1.103-.814 2.196-1.359 3.288-.519 1.038-1.27 1.949-1.753 3.038-1.155 2.604-2.799 10.397-6.334 10.3-1.364-.038-3.205-1.126-4.466-1.638-1.879-.762-3.842-1.504-5.677-2.371-4.643-2.192-9.098-4.744-13.86-6.707-2.144-.883-4.102-2.132-5.996-3.413-1.329-.898-4.281-1.599-4.895-3.242-.741-1.986 2.271-5.732 3.222-7.396 1.362-2.382 2.335-4.953 3.469-7.49 1.198-2.682 2.929-5.288 4.203-8.053.681-1.475 1.46-3 2.33-4.365.866-1.359 2.162-4.598 4.04-4.502 1.775.09 4.335 1.952 5.967 2.691 4.423 2.004 8.859 3.981 13.25 6.055 3.305 1.561 6.256 3.063 9.417 4.959 1.427.855 3.288 1.804 4.45 3.005 1.552 1.602.471 3.344-.413 5.207-.564 1.191-1.157 2.44-1.866 3.589-.513.832-.93 1.459-1.332 2.342a60.151 60.151 0 0 1-1.487 3.057zM727.066 193.069c-.696 1.072-1.269 1.505-3.069.559-1.379-.724-2.506-1.437-4.006-1.972-2.812-1.004-5.661-1.797-8.52-2.659-3.35-1.011-6.142-3.064-9.257-4.652-3.01-1.535-5.781-2.999-8.567-4.851-.864-.574-2.814-1.266-3.031-2.367-.307-1.562 1.686-3.92 2.17-5.428.871-2.707 2.221-5.148 3.449-7.7 1.946-4.042 3.957-8.032 6.518-11.759 1.021-1.485 2.119-2.907 2.949-4.533.603-1.179 1.082-2.857 2.2-3.675 1.872-1.37 4.558-1.083 6.473.04 1.718 1.006 3.166 1.664 5.031 2.433 1.79.738 3.339 1.846 4.963 2.833 3.071 1.867 6.434 3.169 9.628 4.789 1.333.676 2.748 1.134 4.097 1.747 2.04.928 5.327 2.217 5.312 4.956-.012 2.222-1.801 4.342-2.536 6.268-.937 2.455-1.921 4.985-3.165 7.329-.688 1.294-1.268 2.606-1.956 3.916a168.121 168.121 0 0 1-7.95 13.557c-.285.436-.515.833-.733 1.169zM685.499 169.28c-.423.723-.863 1.412-1.262 2.047-1.984 3.157-7.895-1.31-10.116-2.422-3.122-1.562-6.479-2.428-9.472-4.277-3.146-1.944-6.453-3.479-9.9-4.848-2.833-1.125-4.912-2.445-6.969-4.558-2.562-2.634 1.174-7.172 2.331-9.689 1.188-2.586 2.534-5.167 3.802-7.694 1.217-2.426 2.963-4.856 3.994-7.333.95-2.284 1.871-4.597 3.371-6.675 1.998-2.768 4.608-3.566 7.388-1.993 2.199 1.246 4.719 1.62 6.977 2.697 3.795 1.811 7.696 3.57 11.469 5.468a287.858 287.858 0 0 1 7.458 3.879c1.539.831 4.405 1.344 4.956 3.249.497 1.718-1.035 4.213-1.58 5.746-2.856 8.03-8.171 15.176-10.913 23.212-.371 1.085-.936 2.171-1.534 3.191zM640.146 143.368c-.979 2.085-1.943 4.262-3.733 5.466-2.366 1.591-6.064-.281-8.334-1.533-3.091-1.705-6.142-3.498-9.328-5.092-3.931-1.967-7.827-3.442-11.593-5.676-3.019-1.791-6.256-2.829-4.75-6.533 1.979-4.863 4.512-9.475 7.007-14.086 2.31-4.27 4.213-8.917 6.998-12.875.663-.942 1.273-2.621 2.208-3.204 1.669-1.041 6.973 1.4 8.754 2.157 3.705 1.573 7.418 3.382 10.997 5.212 1.585.811 3.088 1.754 4.736 2.468 1.29.559 2.697.812 3.978 1.394 1.385.63 2.421 1.805 3.828 2.417.835.363 1.99.379 2.539 1.205 1.007 1.514-.518 4.127-1.203 5.48-.783 1.545-1.218 3.006-1.883 4.625-.849 2.067-2.173 3.903-3.162 5.911-1.628 3.306-3.337 6.717-5.426 9.664-.625.88-1.131 1.928-1.633 3zM598.123 124.487c-1.173 2.16-3.071 5.703-5.05 5.555-1.258-.094-2.693-1.139-3.87-1.578-3.408-1.272-6.723-3.093-9.944-4.772-3.479-1.812-7.177-3.195-10.695-4.972-1.834-.926-3.68-1.83-5.519-2.748-1.307-.652-4.146-1.47-4.955-2.731-1.193-1.859 1.598-5.288 2.249-6.926 1.125-2.83 1.607-5.838 2.939-8.647 1.965-4.143 4.22-8.24 6.262-12.379 1.185-2.399 2.262-5.036 4.866-5.954 3.238-1.141 7.315 1.012 10.375 2.204 6.139 2.391 12.071 5.232 17.968 8.088 2.222 1.076 4.782 1.953 6.45 3.753 2.341 2.526.906 4.657-.418 7.38-3.628 7.462-6.07 15.673-10.209 22.912a46.81 46.81 0 0 0-.449.815zM552.676 66.046c2.603.863 5.206 1.777 7.649 3.033 2.045 1.05 4.291 1.255 4.958 3.835.537 2.073-.678 4.41-1.58 6.213-1.892 3.781-3.615 7.576-5.3 11.436-1.083 2.48-1.793 5.011-3.164 7.43-1.334 2.353-3.029 4.487-4.466 6.805-1.007 1.624-1.939 4.024-4.058 3.873-4.188-.299-8.516-3.57-12.143-5.374-4.074-2.026-8.012-4.008-12.242-5.708-2.739-1.102-5.752-2.22-8.067-4.099-3.046-2.47-1.072-5.658.442-8.541.858-1.633 1.627-3.346 2.494-5.016.904-1.739 1.543-3.57 2.354-5.356 1.463-3.223 3.798-5.976 5.256-9.193.62-1.365 1.061-2.5 2.019-3.683 1.094-1.348 2.327-3.772 4.028-4.415 2.455-.927 5.516.463 7.604 1.787 2.385 1.512 4.605 3.281 7.122 4.594 2.281 1.191 4.668 1.575 7.094 2.379zM508.852 75.618c-.954 1.578-1.893 3.165-2.751 4.801-2.04 3.888-4.145 6.562-8.366 3.911-1.859-1.167-3.971-2.147-5.958-3.158-4.661-2.371-9.811-3.482-14.373-6.073-1.181-.67-5.027-3.628-6.188-2.967-1.282-1.016-3.055-2.113-2.996-3.969.066-2.138 2.251-4.472 3.004-6.387 1.792-4.558 4.871-8.623 7.052-12.966 1.054-2.099 1.513-4.396 2.623-6.472a558.84 558.84 0 0 1 2.707-5.004c2.614-4.772 6.69-1.547 10.498-.088 4.731 1.812 8.938 5.037 13.753 6.845 3.137 1.178 6.271 2.609 9.278 4.107 1.42.707 4.454 1.167 4.137 3.157-.461 2.89-2.689 5.042-3.745 7.689-.652 1.638-1.464 3.151-2.217 4.754-1.939 4.125-4.084 7.893-6.458 11.82zM464.457 58.714A32.841 32.841 0 0 1 462.773 61c-1.008 1.252-1.56 3.159-2.581 4.296-1.816 2.023-5.562-.398-7.458-1.329-2.883-1.414-5.446-3.405-8.398-4.671-5.669-2.432-11.408-5.28-16.504-8.667-1.114-.741-2.729-1.038-3.472-2.255-.629-1.03-.29-2.785-.121-3.87.347-2.215 2.08-4.087 2.956-6.25 1.576-3.892 3.608-7.454 5.544-11.214 1.211-2.352 2.181-4.944 3.505-7.211 1.398-2.393 2.388-5.269 4.434-7.136 1.436-1.311 2.902.48 4.426 1.129 1.552.66 3.123 1.24 4.629 1.969 2.582 1.25 4.939 2.919 7.495 4.188 2.134 1.06 4.55 1.562 6.651 2.681a322.13 322.13 0 0 0 6.763 3.502c1.52.764 5.609 1.934 6.235 3.726.251.716-.667 2.083-.934 2.778-.476 1.244-.619 2.487-1.074 3.712a169.523 169.523 0 0 1-8.504 19.121 33.172 33.172 0 0 1-1.908 3.215zM416.649 39.263c-.643.981-1.377 1.89-2.265 2.672-4.124 3.641-9.978-1.33-13.816-3.06-2.023-.912-3.799-2.051-5.67-3.171-2.1-1.257-4.451-2.042-6.608-3.195-2.819-1.507-5.619-2.72-8.506-4.006-1.984-.884-3.951-2.255-3.077-4.668.956-2.639 2.549-5.318 4.062-7.743 2.795-4.481 5.812-9.071 8.15-13.799 1.009-2.041 1.665-4.104 2.812-6.116 1.76-3.088 2.704-5.924 6.837-4.546 2.206.735 4.179 2.096 6.334 3.037 2.776 1.212 5.689 2.198 8.488 3.366 2.739 1.143 5.276 2.626 7.979 3.842 1.796.808 3.497 1.627 5.195 2.583 1.539.867 3.969 1.727 4.836 3.396.938 1.804-.579 4.078-1.312 5.786-2.527 5.881-5.747 11.519-9.012 17.014-1.602 2.699-2.67 5.926-4.427 8.608z"/><path fill="none" d="M378.024 30c-.098.017-.131.168-.233.046 1.04-1.757 2.603-3.221 3.746-4.937.934-1.4 1.725-2.908 2.605-4.323 1.936-3.107 3.506-6.317 5.229-9.53 1.706-3.182 3.146-6.562 4.996-9.659.977-1.634 1.713-3.775 2.906-5.097"/><path fill="#44312C" d="M343.262-14.233c-2.153.119-3.23 4.405-4.271 6.111-1.146 1.881-2.02 3.972-3.278 5.807-1.232 1.795-3.485 4.623-2.062 6.815.723 1.113 2.128 1.897 3.241 2.647 1.712 1.153 3.604 2.206 5.523 2.852 3.848 1.297 7.592 2.87 11.173 4.871 3.191 1.783 6.427 3.269 9.736 4.806 1.301.604 4.16 2.043 5.398 1.098.577-.441.854-1.473 1.209-2.094.558-.977 1.262-1.842 1.813-2.778 1.788-3.032 3.889-5.904 5.567-9.012 2.084-3.858 4.043-7.8 5.97-11.719.629-1.28 1.227-2.364 2.091-3.495.949-1.242 1.661-2.632 2.423-3.991.493-.881.735-1.394.63-1.814-.935-.226-3.739-.161-3.149-.161s-40.536-.025-42.014.057zM299.525-14.25c1.245.25-9.782-.218-7.83-.218 1.514 0 2.413 1.237 3.644 1.823 1.729.822 3.721 1.22 5.486 2.037 3.732 1.725 7.223 3.917 10.895 5.762 3.727 1.873 6.535 3.817 10.688 4.014 6.911.328 8.773-9.194 11.626-13.565-.113.109-2.302.231-3.552.231s-2.59-.276-4.337-.248c-3.671.06-7.341.116-11.012.125l-11.065.028c-1.409.003-3.154.29-4.543.011zM274.069-14.167c.968.065 8.875 3.109 11.668 4.514a354.6 354.6 0 0 1 7.354 3.801c6.104 3.25 12.528 6.439 18.854 9.218a67.793 67.793 0 0 1 8.442 4.437c2.142 1.334 4.549 2.053 6.676 3.36 2.043 1.255 3.926 1.703 3.734 4.411-.132 1.875-.988 3.807-1.73 5.514-.875 2.01-2.225 3.706-3.133 5.696-.881 1.93-1.56 3.938-2.667 5.81-1.794 3.032-2.876 6.302-4.253 9.49-.881 2.037-1.501 4.48-3.112 6.095-2.035 2.04-4.034.507-6.337-.392-2.783-1.086-5.484-2.408-8.132-3.79-3.588-1.873-7.251-3.46-10.902-5.199-2.255-1.074-4.393-2.425-6.703-3.383-3.07-1.272-5.513-2.805-8.392-4.422-2.078-1.168-4.234-2.239-6.344-3.333-4.426-2.295-9.308-3.71-13.699-6.042-3.404-1.807-7.274-3.486-10.334-5.699-1.816-1.313-1.205-2.669.009-4.563 1.865-2.91 3.246-5.705 4.783-8.781 2.647-5.297 6.186-13.863 8.269-16.863l15.949.121zM369.533 33.461c1.738.911 3.524 1.748 5.228 2.657 3.838 2.049.627 6.309-.542 9.056-2.133 5.013-4.467 9.917-7.321 14.565-1.908 3.107-3.229 6.19-4.841 9.425-.509 1.02-1.208 2.969-2.499 3.187-.738.124-2.63-.766-3.344-1.024-4.465-1.62-9.007-3.291-13.373-5.096-3.395-1.403-6.216-3.589-9.715-4.597-2.921-.842-6.382-2.723-8.043-5.417-2.282-3.702 2.62-8.287 4.164-11.335 2.896-5.72 5.685-11.546 8.525-17.308.953-1.932 2.735-5.667 5.075-5.825 2.922-.198 6.517 2.009 9.139 3.109 2.651 1.113 5.088 2.662 7.703 3.85 3.035 1.378 6.274 2.832 9.208 4.417l.636.336zM410.404 86.353a128.397 128.397 0 0 0-2.922 5.506c-.765 1.535-1.752 3.568-3.708 3.719-1.339.104-3.876-1.203-5.198-1.668-2.068-.729-3.96-1.906-5.878-2.951-3.35-1.826-6.63-3.711-9.791-5.792-3.346-2.201-7.263-3.593-10.726-5.671-1.079-.647-2.778-1.009-3.333-2.163-.96-1.996.797-4.024 1.74-5.597 1.692-2.821 2.731-6.007 4.338-8.981.988-1.828 2.182-3.543 3.333-5.259 2.318-3.452 4.078-7.158 6.305-10.675 1.73-2.734 3.375-4.182 6.752-3.122 5.057 1.588 9.886 4.751 14.605 7.129 1.823.918 3.792 1.257 5.561 2.151 1.179.596 2.244 1.382 3.5 1.78 1.195.379 2.342.57 3.503 1.098 1.797.816 3.185 1.56 4.122 3.403 1.213 2.383-.33 5.901-1.287 8.15-1.165 2.737-2.662 5.317-4.238 7.834-2.318 3.707-4.571 7.35-6.678 11.109zM438.767 110.691c3.34 1.168 6.124 2.876 9.229 4.47 2.805 1.44 4.866-3.333 6.186-5.323 2.38-3.59 3.354-7.492 5.145-11.313 1.644-3.506 3.202-7.052 4.743-10.604.771-1.775 1.536-3.552 2.306-5.327.851-1.959.622-2.065-.861-3.473-.779-.739-1.839-1.2-2.812-1.619-1.261-.542-2.506-1.124-3.75-1.684-1.588-.715-3.277-.727-4.902-1.376-1.758-.703-3.427-1.717-5.129-2.465-1.805-.793-3.827-1.076-5.597-1.875-1.59-.718-3.015-1.783-4.618-2.478-.708-.307-2.38-1.603-3.165-1.381-.635.179-1.546 1.888-1.897 2.509-.865 1.529-1.928 2.966-2.756 4.503-1.602 2.977-3.176 5.675-5.095 8.497-1.829 2.69-3.296 5.686-4.993 8.464-1.083 1.772-1.837 3.719-2.771 5.543-.608 1.185-2.511 3.2-.676 4.242 1.029.584 2.202.947 3.262 1.595 1.169.715 2.393 1.336 3.689 1.784 3.632 1.256 6.529 3.774 9.996 5.348 1.487.677 2.91 1.419 4.466 1.963zM510.55 107.607c1.079-1.674 2.236-3.589.642-5.297-.676-.723-1.97-1.166-2.8-1.711-1.157-.762-2.236-1.578-3.501-2.172-5.194-2.438-10.312-5.476-15.374-8.235-2.271-1.238-4.597-2.552-7.079-3.431-1.446-.512-4.089-1.75-5.554-1.208-1.373.509-2.125 2.181-2.772 3.24-1.251 2.046-2.628 3.936-3.873 6.004-2.427 4.032-4.122 8.057-5.682 12.455-.937 2.643-2.909 4.983-3.869 7.72-1.158 3.302.905 4.796 3.394 6.244 2.518 1.465 4.879 3.029 7.526 4.253 5.386 2.49 10.347 5.71 15.875 7.84 3.186 1.228 5.403 2.993 9.047 3.057 2.292-3.659 3.949-8.218 5.991-12.304 1.352-2.703 2.515-5.489 3.945-8.118 1.24-2.28 2.049-4.817 3.299-7.071.221-.399.501-.824.785-1.266zM540.033 158.22c.095-.036.186-.083.272-.142 1.599-1.073 3.043-5.491 3.789-7.242 1.547-3.627 3.342-7.478 5.255-10.956 1.927-3.504 4.444-6.741 6.175-10.259.749-1.521 1.64-3.892.338-5.283-1.071-1.144-3.726-1.861-5.129-2.63-2.855-1.564-5.51-3.3-8.518-4.679-3.502-1.606-6.855-3.345-10.319-5.079-2.382-1.192-6.875-4.714-9.665-3.431-2.139.984-3.087 5.507-4.134 7.449-1.612 2.992-3.46 5.849-5.077 8.838-1.066 1.972-2.114 3.959-3.245 5.938-1.698 2.971-4.145 6.054-5.009 9.418-.426 1.656 1.169 2.451 2.466 3.176 3.206 1.793 6.499 3.561 9.807 5.123.821.388 1.499.95 2.271 1.375.975.538 2.094.624 3.121 1.066 1.355.583 2.674 1.168 4.087 1.597 2.506.76 4.801 2.01 7.257 2.909 1.644.603 4.537 3.471 6.258 2.812zM576.607 177.295c-.443-.224-.849-.44-1.199-.632-4.325-2.363-8.872-4.586-13.333-6.74-2.423-1.17-4.893-2.33-7.309-3.555-1.588-.805-4.075-1.694-5.37-2.863-2.229-2.012 1.458-6.093 2.54-8.125 1.956-3.671 3.979-7.412 5.506-11.336 1.672-4.301 4.002-8.948 7.291-12.213 2.643-2.624 3.133-1.643 6.207-.413 1.911.764 4.174 1.344 6.284 2.237 3.343 1.415 6.689 2.584 10.009 4.05 3.332 1.471 6.269 3.642 9.529 5.213 1.121.54 3.377 1.229 4.183 1.995 1.018.969.429 1.887-.083 3.084-3.384 7.919-7.079 15.809-11.171 23.325-1.179 2.165-2.953 7.016-5.454 7.808-2.101.666-5.362-.687-7.63-1.835zM645.503 165.393c.207.256.348.52.391.788.172 1.054-.514 2.51-.902 3.438-1.198 2.852-2.748 5.288-4.47 7.785-1.054 1.528-2.102 3.084-2.844 4.83-.891 2.095-1.407 4.136-2.562 6.131-2.139 3.694-4.088 7.643-6.375 11.197-.838 1.302-1.051 2.112-2.598 1.87-1.211-.189-2.626-.416-3.747-.991-1.465-.751-2.673-1.898-4.158-2.662-1.641-.843-3.079-1.879-4.65-2.848-2.849-1.757-5.812-3.679-8.825-5.128-2.005-.964-4.017-1.914-6.003-2.902-1.6-.796-5.516-1.896-5.591-4.162-.021-.607 1.316-2.27 1.634-2.85.679-1.242 1.393-2.425 2.122-3.646 1.066-1.784 1.914-3.672 2.871-5.562 1.066-2.106 2.413-4.303 3.226-6.491.71-1.912 1.12-3.463 2.244-5.162a217.915 217.915 0 0 0 3.26-5.066c.536-.863.978-2.832 2.024-3.221.756-.281 2.566.303 3.344.537a55.546 55.546 0 0 1 6.493 2.403c2.743 1.217 5.126 3.054 8.014 4.125 2.907 1.079 5.783 2.237 8.74 3.152a24.516 24.516 0 0 1 4.412 1.851c.915.502 3.055 1.473 3.95 2.584zM682.576 181.848c-.383-.178-.772-.34-1.173-.474-2.287-.77-4.427-1.692-6.663-2.579-3.666-1.454-7.283-3.037-10.812-4.801-2.859-1.43-5.964-3.917-9.297-3.925-1.902-.005-3.018 1.683-3.721 3.122-1.304 2.667-2.713 5.229-3.837 8.007-2.399 5.93-5.3 11.602-8.129 17.401-.854 1.751-2.69 4.192-1.662 6.107 1.025 1.911 4.938 3.621 6.907 4.617 7.741 3.914 15.686 8.444 23.892 11.216.953.322 2.15 1.13 3.284.881 1.59-.349 2.683-3.421 3.424-4.839 2.01-3.843 3.939-7.836 5.914-11.665.971-1.883 9.587-19.613 6.842-20.556-1.677-.576-3.252-1.714-4.969-2.512zM717.434 198.288c-2.351-1.176-4.661-2.419-7.192-3.289-2.398-.824-4.434-1.829-6.639-2.597-2.804-.976-4.764-1.309-6.912 1.305-2.658 3.234-4.203 7.987-5.575 11.852-1.364 3.845-3.989 6.985-5.786 10.72-1.087 2.261-2.58 4.486-3.463 6.798-.703 1.839-.292 2.299 1.345 3.431 3.302 2.283 7.138 3.674 10.567 5.78 3.789 2.326 7.822 4.042 11.629 6.212 2.738 1.56 5.715 3.432 8.812 4.152 3.955.92 5.709-4.993 7.146-7.853 1.396-2.775 2.655-5.662 3.921-8.51 1.104-2.481 2.36-4.88 3.622-7.291 1.701-3.253 5.215-8.215 5.17-12.004-.029-2.437-3.616-3.697-5.55-4.164-3.195-.772-5.805-2.084-8.826-3.453a66.618 66.618 0 0 1-2.269-1.089zM773.753 237.564c-.052.106-.101.209-.147.31-1.451 3.135-2.628 6.068-4.417 9.043-1.655 2.753-2.729 5.78-4.245 8.636-.94 1.771-1.691 4.527-3.592 5.445-2.129 1.027-4.765-.312-6.787-.963-4.807-1.547-9.585-3.83-13.958-6.358-2.844-1.644-6.122-2.617-8.992-4.201-2.559-1.412-6.189-2.432-5.71-6.152.386-2.995 2.171-5.258 3.595-7.819 1.43-2.571 2.701-5.226 4.115-7.806 1.093-1.995 1.793-3.956 2.792-6 1.436-2.938 2.763-6.394 5.214-8.658 2.725-2.516 5.987-.722 8.851.573 5.928 2.681 12.23 5.065 17.83 8.388 2.323 1.378 5.645 2.694 7.499 4.684 2.662 2.857-.611 7.925-2.048 10.878zM819.374 259.959c-2.659 5.223-5.797 10.205-8.27 15.511-1.171 2.516-2.31 8.505-5.865 8.532-2.154.016-5.051-1.945-6.867-2.958-4.127-2.302-8.691-3.771-12.853-6.035-1.599-.87-3.471-1.189-5.174-1.872-1.547-.62-2.879-1.484-4.232-2.445-.974-.691-2.521-1.43-3.128-2.409-.528-.853-.489-2.388-.626-3.369-.376-2.701-.78-4.373.727-6.706 1.68-2.601 2.956-5.469 4.771-7.979 1.578-2.183 2.994-4.644 4.535-6.75.672-.917 1.242-1.422 1.437-2.442.441-2.316 1.34-3.635 2.787-5.367 2.249-2.692 7.489.182 10.01.99 1.783.572 3.271 1.633 4.975 2.333 1.607.661 3.357 1.008 4.988 1.728 3.799 1.676 7.321 3.901 11.064 5.69 1.863.891 5.083 1.451 5.541 3.832.421 2.188-1.825 5.58-2.767 7.569-.34.723-.692 1.438-1.053 2.147zM887.761 298.139a45.229 45.229 0 0 0-2.352 4.902c-1.287 3.147-2.676 6.177-4.375 9.13-1.664 2.893-3.048 10.071-7.62 7.055-5.444-3.59-11.764-5.844-17.636-8.797-6.031-3.033-12.018-6.167-18.207-8.875-3.858-1.688-7.426-4.162-11.12-6.176-2.455-1.338-4.823-2.833-7.25-4.204-1.849-1.045-4.166-1.557-3.925-3.968.147-1.472 1.271-2.885 1.758-4.265.546-1.543.866-2.667 1.704-4.198.718-1.312 1.566-2.515 2.33-3.832 1.566-2.701 3.33-5.558 4.418-8.449 1.088-2.894 3.008-4.892 4.881-7.333 1.268-1.652 2.682-3.51 4.952-3.586 1.726-.058 4.387 1.427 6.023 2.155a135.384 135.384 0 0 1 7.827 3.768 575.623 575.623 0 0 0 12.316 6.284c3.394 1.677 6.778 3.398 10.175 5.096 1.938.968 3.78 2.188 5.642 3.195 4.368 2.365 9.09 3.911 13.143 6.786 3.024 2.146 3.368 3.886 2.024 7.322-1.139 2.916-3.195 5.288-4.708 7.99zM872.253 333.416c-1.309 2.253-2.514 4.58-3.848 6.823-2.123 3.568-4.29 7.099-6.437 10.651-.982 1.625-1.424 3.488-2.499 5.036-.996 1.433-1.731 2.787-2.443 4.355-.573 1.261-1.305 2.95-2.527 3.719-1.159.73-3.393-.154-4.596-.597-2.291-.844-4.214-2.125-6.348-2.737-2.594-.743-5.246-1.39-7.687-2.568-1.851-.894-3.802-1.529-5.622-2.473-2.484-1.288-4.801-2.696-7.467-3.619-3.344-1.158-6.499-2.981-9.75-4.391-3.365-1.458-6.769-2.97-10.034-4.616-1.489-.75-2.847-1.664-4.315-2.406-3.059-1.544-6.322-2.754-9.281-4.441-3.418-1.948-7.032-3.568-10.389-5.624-1.349-.826-2.398-1.874-3.823-2.646-1.371-.743-2.807-1.434-3.818-2.664-1.629-1.979 1.452-5.573 2.235-7.363.758-1.731 1.763-3.315 2.639-4.984 1.598-3.045 3.661-5.926 5.031-9.094 1.31-3.03 3.115-5.784 4.604-8.721 1.058-2.088 1.655-4.445 3.635-5.88 2.608-1.892 4.561.172 7.002 1.378 4.091 2.02 8.469 3.476 12.516 5.563 1.201.619 2.195 1.485 3.466 1.981 1.472.575 2.939 1.156 4.41 1.778 3.299 1.397 6.386 3.209 9.618 4.747 5.642 2.683 11.095 5.792 16.619 8.622 3.451 1.768 6.911 3.555 10.385 5.253 4.188 2.045 8.31 3.584 12.219 6.243 1.819 1.237 3.868 2.267 5.772 3.36 2.114 1.213 2.544 2.296 1.25 4.438-.175.292-.347.584-.517.877zM776.899 297.1c1.132-2.016 2.455-3.798 3.469-5.94.586-1.238.949-2.784.663-4.163-.569-2.74-4.238-4.577-6.407-5.903-2.929-1.792-5.969-3.979-9.197-5.188-3.324-1.246-6.523-2.723-9.803-4.125-3.158-1.351-6.311-2.817-9.627-3.66-1.835-.466-2.973.629-3.939 2.034-.979 1.424-2.044 2.89-2.939 4.348-1.199 1.953-1.919 4.155-3.188 6.019-2.895 4.25-5.065 9.113-7.533 13.578-.991 1.792-2.043 3.852-1.125 5.894.533 1.188 1.764 1.868 2.753 2.638 1.159.903 2.247 1.894 3.466 2.743 3.134 2.185 6.19 4.522 9.434 6.506 3.123 1.912 6.61 3.288 9.95 4.775 2.62 1.167 4.709 2.582 7.525 3.122 2.625.503 4.074-.674 5.75-2.778 1.395-1.751 2.874-3.561 3.75-5.625 1.04-2.447 2.06-5.014 3.303-7.372 1.219-2.316 2.418-4.628 3.695-6.903zM717.231 356.208a4.61 4.61 0 0 1-.719-.584c-2.518-2.553-1.324-1-.977-3.853.426-3.487 4.303-14.352 8.329-15.557.595-.177 1.783.263 2.466.437 7.494 1.909 15.543 6.058 22.568 9.352 2.387 1.119 9.681 3.451 10.913 5.974 2.113 4.33-4.424 17.812-7.888 20.595-8.645-5.256-18.238-9.107-27.406-13.448-1.791-.85-5.318-1.596-7.286-2.916zM766.489 363.5c.735-1.162 1.51-3.807 3.107-3.979 1.167-.125 2.432 1.01 3.418 1.482 2.62 1.252 5.192 2.609 7.83 3.816 3.126 1.43 6.264 2.755 9.377 4.217 2.652 1.246 5.469 1.902 8.063 3.34 1.92 1.064 6.111 1.48 5.864 4.495-.222 2.689-2.849 4.667-4.166 6.815-1.148 1.873-2.123 3.841-3.236 5.691-.651 1.082-1.365 2.989-2.677 3.24-1.194.229-2.812-.893-3.921-1.247-2.27-.724-4.973-1.383-7.129-2.465-2.837-1.424-5.808-2.607-8.583-4.153-1.592-.887-3.243-1.613-4.909-2.378-1.696-.779-3.5-1.582-5.105-2.482-.46-.258-6.478-2.481-5.911-3.269.417-.579.558-1.183.981-1.818 1.423-2.131 3.043-4.04 4.281-6.334.891-1.648 1.722-3.4 2.716-4.971zM810.648 362.33c-.634 1.213-1.218 2.45-1.843 3.667-.794 1.545-1.207 3.336-2.425 4.641-.565.605-.133.554-1.033.718-.419.077-1.019-.122-1.421-.231-.943-.256-1.814-.735-2.641-1.247-1.475-.914-3.141-1.184-4.691-1.899-1.658-.764-3.112-1.871-4.686-2.75-3.383-1.89-6.645-3.709-10.322-4.951-1.526-.515-2.779-1.249-4.176-2.04-1.413-.802-3.439-1.342-4.637-2.357-1.534-1.298-.414-2.716.396-4.031.887-1.437 1.622-2.98 2.476-4.465.958-1.666 2.202-3.286 3.462-4.747.971-1.124 2.389-2.557 2.813-3.991.487-1.646 9.079 3.583 9.769 3.953a296.105 296.105 0 0 0 6.928 3.622 185.68 185.68 0 0 0 6.772 3.244c1.985.903 3.399 1.771 5.099 3.114 1.083.855 3.738 1.543 3.406 3.298-.272 1.44-1.201 2.976-1.996 4.247a33.532 33.532 0 0 0-1.25 2.205zM840.057 409.279c1.293-1.974 2.815-3.792 4.189-5.666 1.229-1.675 1.351-3.924 2.835-5.465.706-.733 1.213-.697.311-1.77-.766-.91-2.246-1.375-3.246-1.974a118.355 118.355 0 0 0-7.614-4.162c-2.142-1.077-4.364-1.923-6.505-3.024a119.41 119.41 0 0 1-6.874-3.816c-2.272-1.365-4.87-2.001-7.344-2.903-1.213-.442-4.16-2.038-5.33-1.445-1.366.691-2.047 3.704-2.704 4.973-.923 1.783-2.068 3.448-3.031 5.143-.736 1.297-1.667 2.525-2.25 3.868-.334.772-.811 1.926-1.297 2.517.81.935 2.039 1.496 3.025 2.241 1.806 1.364 3.694 2.888 5.732 3.859 4.34 2.067 8.509 4.47 12.794 6.645a102.698 102.698 0 0 0 6.751 3.133c2.874 1.205 5.991 3.901 8.705.886.78-.867 1.216-2.069 1.853-3.04zM716.155 334.25a23.546 23.546 0 0 1-.79 1.482c-1.156 1.969-2.37 3.919-3.216 6.049-.736 1.853-1.861 3.501-2.967 5.148-.791 1.181-1.558 3.488-3.283 3.321-.985-.095-2.273-.494-3.231-.845-1.729-.633-3.532-1.042-5.269-1.683-4.607-1.703-9.453-2.826-13.954-4.811-1.813-.799-3.354-1.816-5.274-2.5-1.738-.619-3.589-1.267-4.843-2.695-.562-.641-.875-1.412-1.481-2.061-.691-.739-1.406-1.395-1.697-2.406-.718-2.497 1.298-4.526 2.219-6.693.743-1.749 1.982-3.291 2.784-5.007 1.058-2.263 2.53-4.324 3.895-6.444 1.517-2.355 2.288-5.161 3.753-7.575.762-1.257 1.56-2.541 2.35-3.78a130.025 130.025 0 0 0 3-4.966c.667-1.157 1.546-2.976 2.782-3.284 1.994-.498 4.837 1.155 6.42 2.162 3.583 2.277 7.024 4.133 10.932 5.704 3.83 1.54 7.913 2.563 11.448 4.762 1.349.838 2.584 1.854 3.925 2.719.978.631 2.636 1.253 2.901 2.521.396 1.896-1.896 4.75-2.658 6.503-1.62 3.725-3.63 7.104-5.756 10.5-.759 1.212-1.341 2.568-1.99 3.879zM671.43 314.861l1.073-2.143c1.473-2.935 2.636-6.161 3.771-9.254 1.255-3.417 2.364-6.927 3.747-10.282.435-1.057 1.452-2.735 1.253-3.933-.158-.956-1.275-1.725-2.122-2.222-2.899-1.703-6.085-2.457-9.126-3.784-2.13-.93-4.152-2.007-6.276-2.99-3.055-1.413-6.398-2.984-9.081-5.002-2.031-1.528-4.141-2.109-6.441-3.151-1.782-.806-3.378-1.903-5.23-2.604-1.172-.443-3.328-1.261-4.57-1.25-1.467.014-2.831 2.706-3.489 3.786-1.112 1.827-2.036 3.887-3.082 5.786-.938 1.704-1.517 3.501-2.422 5.211-.825 1.559-1.781 3.082-2.656 4.595-.807 1.395-2.006 2.501-2.725 3.934-.687 1.366-1.214 2.817-1.91 4.194-.757 1.499-1.403 3.049-2.165 4.519-.598 1.154-2.062 3.915-3.057 4.533-.699 2.11-.881 3.316.716 5.092 2.61 2.905 6.095 3.34 9.45 5.01 5.258 2.617 10.525 5.102 15.84 7.587 2.425 1.133 4.927 2.435 7.187 3.877 2.604 1.663 5.558 2.344 8.261 3.742 1.312.679 3.029 1.442 4.207.148 1.479-1.625 2.492-4.329 3.73-6.205 1.942-2.944 3.549-6.069 5.117-9.194zM461.745 181.978c2.031 1.052 3.95 2.349 6.039 3.241 2.654 1.133 5.228 2.459 7.896 3.531 2.576 1.035 5.02 2.366 7.633 3.322 7.186 2.631 12.757 7.277 19.527 10.805 7.294 3.8 15.002 6.789 22.07 11.024 4.44 2.66 9.153 4.077 13.988 5.974 7.803 3.061 14.781 7.873 22.356 11.377 1.229.569 2.323 1.278 3.519 1.907 6.461 3.399 13.245 6.095 19.875 9.181 6.085 2.832 11.807 6.6 17.781 9.663 5.841 2.993 11.877 5.636 17.438 9.149 1.829 1.155 6.984 3.017 6.538 5.882-.2 1.284-1.071 2.662-1.538 3.87-1.119 2.896-2.151 5.482-3.605 8.223-1.457 2.746-3.176 5.417-4.391 8.284-.811 1.911-1.475 3.651-2.646 5.402-1.218 1.821-2.73 3.382-3.751 5.333-.894 1.708-1.78 3.174-2.943 4.676-.99 1.277-1.49 3.152-3.194 3.733-1.35.459-3.305-.964-4.596-1.471-4.467-1.753-8.536-4.34-12.649-6.775-2.481-1.469-5.608-2.404-7.84-4.197-2.089-1.678-3.984-2.903-6.416-4.136-9.332-4.729-18.587-9.652-27.838-14.511-2.547-1.338-5.227-2.428-7.725-3.837-1.967-1.109-3.774-2.47-5.75-3.537-10.188-5.501-21.244-9.442-31.623-14.604-4.485-2.231-8.861-4.562-13.502-6.863-9.617-4.768-18.768-9.994-28.714-14.067-9.784-4.007-20.448-6.99-29.509-12.53-4.162-2.545-7.474-4.678-11.666-6.637-7.003-3.272-19.737-7.777-24.173-14.442 1.198-2.008 2.618-5.281 4.062-8.058 4.285-8.246 8.135-20.509 15.098-26.753 4.143-3.713 8.121-.414 13.038 1.477 9.616 3.697 19.002 8.293 28.435 12.482 2.632 1.169 5.309 2.236 7.916 3.458.29.135.576.277.86.424zM722.262 288.965c-.258.485-.514.973-.765 1.464-.842 1.646-1.501 4.373-3.259 5.296-1.242.652-2.834-.239-4.111-.507-4.062-.853-7.505-3.009-11.153-4.891-2.246-1.158-4.521-2.281-6.554-3.837-2.382-1.824-5.413-2.518-7.896-4.237-1.954-1.353-5.641-3.02-5.719-5.821-.044-1.545 1.431-3.247 2.073-4.616.807-1.719 1.515-3.487 2.424-5.158 1.582-2.908 3.205-5.716 4.696-8.662 1.189-2.35 2.582-4.811 4.025-7 .645-.977 1.192-2.074 1.719-3.024 1.996-3.606 3.9-1.583 6.906-.469 2.559.948 5.376 2.098 7.754 3.395 2.739 1.495 5.186 3.462 7.91 4.981 1.88 1.047 3.879 1.952 5.874 2.721 1.838.708 3.083 2.003 4.614 3.248 1.63 1.323 1.577 2.002 1.473 4.149-.151 3.104-1.913 5.708-2.915 8.558-1.807 5.143-4.569 9.655-7.096 14.41zM667.254 274.578c3.416 1.389 6.8 2.712 9.262-.563 1.772-2.357 2.708-5.257 3.847-7.942 1.815-4.283 4.347-8.208 6.388-12.378.924-1.888 1.586-3.939 2.571-5.753 1.092-2.009 2.484-3.831 2.245-6.273-.201-2.046-1.874-2.431-3.479-3.111-2.05-.869-4.02-1.914-6.021-2.884a173.993 173.993 0 0 1-5.001-2.505c-2.725-1.432-5.564-2.632-8.296-4-1.739-.871-3.427-1.66-5.24-2.333-2.047-.76-4.533-3.168-6.857-2.875-1.15.146-1.695 1.322-2.169 2.171-.505.905-1.204 1.676-1.738 2.576-.698 1.179-1.47 2.271-2.124 3.474-1.068 1.965-2.299 3.896-3.322 5.869-1.601 3.085-2.502 6.344-3.794 9.506-1.311 3.208-3.488 5.969-4.629 9.325-1.426 4.197 5.758 5.757 8.629 7.121 5.023 2.385 10.055 5.009 14.699 7.954 1.223.773 3.083 1.83 5.029 2.621zM632.338 251.821c-1.214 1.799-2.831 2.847-5.939 1.74-3.406-1.212-6.498-3.072-9.675-4.769-5.228-2.792-10.453-5.637-16-7.959-2.303-.964-6.564-1.588-6.161-4.838.271-2.177 1.479-3.96 2.339-5.917.8-1.822 1.424-3.741 2.279-5.563 1.056-2.253 2.282-4.466 3.438-6.668 1.19-2.268 2.109-4.689 3.178-7.001 1.53-3.312 4.295-8.959 8.804-7.35 3.06 1.092 6.011 2.763 8.958 4.129 2.901 1.345 5.838 2.862 8.842 3.996 3.144 1.187 6.36 2.251 9.077 4.218 1.692 1.226 4.717 1.712 5.689 3.757 1.196 2.517-1.735 6.465-2.559 8.779-.933 2.623-2.311 4.838-3.699 7.172-1.6 2.687-2.62 5.508-4.001 8.291-.645 1.3-1.622 2.438-2.309 3.712-.796 1.476-1.436 3.048-2.261 4.271zM580.29 187.102c.946.359 1.879.751 2.771 1.236 3.81 2.07 8.142 3.278 11.842 5.45 2.232 1.31 5.117 2.064 7 3.906 2.727 2.666-1.043 7.192-2.295 9.694-2.322 4.638-4.684 9.254-7.02 13.885-.794 1.573-1.614 3.237-2.445 4.708-1.021 1.809-1.77 3.699-2.75 5.473-.711 1.288-1.206 3.303-2.958 3.076-1.536-.2-3.651-1.047-5.069-1.725-1.551-.741-3.091-1.66-4.625-2.466-4.488-2.356-9.224-4.154-13.75-6.437-3.227-1.627-6.636-3.355-9.753-5.201-.797-.472-2.308-1.221-2.51-2.265-.26-1.342 1.061-3.615 1.565-4.781 1.608-3.719 3.54-7.214 5.444-10.815.854-1.616 1.426-3.355 2.386-4.907 1.086-1.755 2.275-3.44 3.215-5.284.957-1.878 2.071-3.785 3.137-5.598.731-1.245 2.021-2.711 3.639-2.594 2.9.209 4.664 1.545 7.17 2.721 1.618.759 3.334 1.29 5.006 1.924zM557.45 181.789l-.052.143c-1.579 4.232-3.95 7.815-6.012 11.818-1.888 3.665-3.174 7.391-4.676 11.192-1.529 3.874-3.68 8.096-8.117 7.447-6.122-.897-11.678-4.224-16.959-7.153-4.336-2.405-9.243-3.205-13.265-6.022-7.515-5.265.365-11.922 2.336-17.963 1.98-6.07 5.725-10.843 8.679-16.367.525-.982.771-2.265 1.459-3.146.726-.929 1.36-1.592 2.624-1.675 2.854-.186 5.558 2.202 7.94 3.343 3.879 1.856 7.899 3.322 11.72 5.352 5.535 2.938 17.29 4.703 14.323 13.031zM495.957 189.458c-3.332 2.357-10.729-2.608-13.726-4.302-3.614-2.042-6.098-4.093-10.073-5.585-3.671-1.377-7.659-2.839-10.333-5.854-2.097-2.367 1.073-7.027 1.836-9.45 1.394-4.422 3.916-8.243 6.176-12.327 2.239-4.046 3.58-10.633 7.883-13.153 3.865-.304 7.39 2.677 10.455 4.432 4.591 2.629 10.07 3.606 14.721 6.27 2.327 1.333 9.815 4.241 9.759 7.707-.027 1.676-2.756 5.024-3.567 6.748-2.579 5.481-5.565 10.672-8.139 16.198-1.278 2.745-2.334 7.319-4.871 9.229l-.121.087zM457.708 157.38c-.922 1.955-1.748 3.936-2.37 5.948-.812 2.627-1.741 6.065-4.959 5.22-1.351-.355-3.236-2.105-4.521-2.796-1.905-1.025-3.795-2.08-5.754-3.001-4.611-2.169-9.214-3.794-13.656-6.445-2.652-1.583-11.166-3.291-9.711-7.613.735-2.183 3.349-4.848 4.468-7.051 1.543-3.037 3.022-6.11 4.146-9.33 1.133-3.25 2.312-6.31 4.11-9.392.934-1.599 2.247-5.641 4.119-6.056 3.179-.706 5.938 1.713 8.607 2.95 3.502 1.622 6.82 3.386 10.212 5.242 3.883 2.125 8.303 3.628 12.244 5.633 9.119 4.637-.993 15.199-4.056 21.02-.983 1.87-1.978 3.758-2.879 5.671zM389.649 137.628c4.842 2.266 9.067 5.832 14.293 7.295 3.262.914 4.94.883 6.711-1.9 2.107-3.311 4.431-6.63 6.303-10.082 1.691-3.12 2.796-6.52 4.262-9.761 1.381-3.051 4.596-7.78 2.497-11.196-1.603-2.61-6.215-3.617-8.786-4.992-3.486-1.865-7.198-3.47-10.938-4.808-3.915-1.4-7.488-3.598-11.348-5.129-5.561-2.207-7.132 3.865-8.807 8.632-2.536 7.217-7.976 13.356-10.868 20.31-1.296 3.115 1.404 3.157 3.949 4.759 2.229 1.404 4.756 2.169 7.123 3.288 2.104.995 3.519 2.606 5.609 3.584zM335.382 111.641a26.304 26.304 0 0 0-2.786-1.297c-4.495-1.769-7.377-2.239-4.82-7.983 2.708-6.084 6.38-11.249 9.38-17.036.83-1.599 1.305-3.256 2.057-4.767.895-1.798 1.752-4.51 3.278-5.863 1.821-1.613 3.401-.848 5.697-.073 4.516 1.524 8.399 4.376 12.582 6.577 6.534 3.438 13.114 6.23 19.555 9.887.004 6.028-6.442 14.984-9.075 20.398-1.625 3.341-4.602 10.112-7.199 12.24-4.211 3.451-12.581-1.593-16.926-4.265-4.109-2.527-7.639-5.621-11.743-7.818zM317.666 97.51c-1.264 1.231-2.823 1.959-4.863 1.755-2.574-.258-5.549-3.022-7.808-4.171-3.913-1.989-8.083-3.5-12.075-5.324-1.836-.839-3.774-1.396-5.677-2.16-4.798-1.927-9.353-4.417-14.222-6.138-4.452-1.573-8.04-4.713-12.339-6.593-7.231-3.162-14.499-7.698-21.646-11.366-4.466-2.292-9.349-5.724-14.062-7.1-.848-4.909 4.589-12.475 6.788-16.679 1.83-3.498 7.182-14.251 10.637-15.523 5.362 3.332 11.966 3.592 17.699 6.897 7.304 4.21 14.942 7.842 22.287 12.269 8.275 4.988 17.423 7.745 25.99 12.047 6.664 3.346 14.519 5.441 20.648 9.712 2.685 1.871 3.977 1.364 3.387 5.35-.799 5.402-6.299 11.84-8.986 16.542-1.752 3.066-3.099 7.89-5.758 10.482zM384.288 196.777c-.824 1.341-5.418-1.903-6.267-2.249-1.665-.678-2.921-1.532-4.373-2.552-1.801-1.265-3.812-2.104-5.746-3.125-5.67-2.997-30.904-10.549-28.614-19.182 2.013-7.583 7.232-16.762 10.613-24.292 4.22-9.399 5.777-11.115 14.483-7.503 3.521 1.461 6.812 3.916 10.417 5.677 7.111 3.474 14.049 6.308 21.345 9.818 5.448 2.622 6.02 3.12 3.912 9.326-1.724 5.077-4.814 9.579-6.784 14.553-2.521 6.369-6.002 14.677-8.986 19.529zM303.95 123.535c-4.239 6.912-8.287 13.741-10.053 21.45-1.542 6.734-.609 7.095 6.5 9.489 1.352.456 28.176 13.543 27.904 14.328 1.604-4.641 5.303-8.402 7.514-12.65 1.921-3.688 3.343-8.034 4.949-11.875 3.988-9.531 7.857-14.016-2.99-18.531-9.599-3.996-17.529-9.919-28.264-11.522-1.769 3.175-3.683 6.251-5.56 9.311zM291.549 103.306c2.61 1.265 8.671 1.851 9.826 4.829 1.261 3.247-3.604 9.338-4.866 12.144-2.224 4.946-3.955 9.936-6.098 14.873-3.326 7.666-4.549 14.44-13.469 11.132-7.812-2.897-14.54-7.463-22.067-10.931-3.033-1.397-10.469-3.689-10.374-7.376.062-2.413 5.262-9.236 6.525-11.662 3.007-5.767 7.525-22.566 13.248-25.087 4.842-2.133 12.87 4.801 17.101 6.761 2.953 1.366 6.611 3.588 10.174 5.317zM238.735 75.21c2.938 1.871 5.826 3.838 8.914 5.008 7.235 2.741 10.486 3.42 8.408 11.602-1.562 6.154-4.878 11.951-8.021 17.413-2.617 4.546-4.447 9.625-7.725 13.777-5.042 6.386-8.133 4.613-14.593 1.115-3.261-1.767-7.015-2.325-10.312-4.003-5.302-2.699-13.309-6.216-14.393-12.911-1.106-6.84 5.761-15.331 8.886-20.897 2.35-4.186 4.991-14.822 9-17.339 4.622-2.902 15.774 3.649 19.836 6.235zM406.201-14.374c2.982 2.113 6.217 3.234 10.143 5.228 2.682 1.362 2.71 1.945 4.788.127 1.102-.963 3.567-4.518 3.268-4.981l-18.199-.374z"/><path fill="#897977" d="M379.968 264.377c1.01-1.929 2.284-3.521 3.493-5.365 2.211-3.373 4.404-6.679 8.128-8.506 6.483-3.181 13.427 1.529 19.407 3.709 6.995 2.55 12.961 7.182 19.654 10.353 4.839 2.293 9.669 4.57 14.756 6.376 9.969 3.539 19.897 7.39 29.499 11.987 5.994 2.87 12.344 4.683 18.231 7.756 3.698 1.931 7.515 3.429 11.336 5.077 8.535 3.681 17.853 8.86 25.428 14.242 3.424 2.432 6.881 3.814 10.767 5.237 3.345 1.225 6.556 3.414 9.662 5.181 12.124 6.897 25.285 12.783 38.372 17.756 6.849 2.603 13.394 5.852 20.004 9.007 3.804 1.815 7.783 3.351 10.389 6.812 4.189 5.566 1.503 11.548-1.483 16.93-3.148 5.675-5.405 12.143-8.174 18.083-3.564 7.646-6.468 15.935-9.458 23.833-3.204 8.462-7.814 16.563-11.34 24.942-3.012 7.158-6.472 13.897-9.744 20.914-4.906 10.519-9.09 21.352-13.729 31.987-2.038 4.672-3.545 9.368-5.556 14.032-2.362 5.482-5.307 10.813-8.158 16.015-2.084 3.802-3.869 9.485-8.747 10.458-2.533.506-4.537-.453-6.805-1.256-8.883-3.146-17.088-6.952-25.499-11.438-5.322-2.838-10.593-5.751-15.938-8.501-7.646-3.933-15.478-7.449-23.088-11.36-6.589-3.388-13.273-6.387-19.806-9.907-7.55-4.068-15.431-7.302-22.851-11.731-2.848-1.7-5.589-3.46-8.783-4.451-5.443-1.687-10.661-4.996-15.876-7.301-6.022-2.662-12.095-5.24-17.854-8.448-3.387-1.887-7.015-3.489-10.501-5.301-9.768-5.075-20.198-8.921-29.969-13.957-7.275-3.749-14.402-7.797-21.786-11.306-6.054-2.877-15.023-8.879-14.562-16.743.354-6.047 3.599-10.635 6.313-15.844 2.141-4.108 3.813-8.332 5.681-12.513 3.079-6.897 5.444-13.921 8.574-20.825 2.103-4.64 4.602-9.135 7.118-13.553 3.598-6.315 5.483-13.418 8.896-19.87 3.156-5.968 5.79-12.216 9.106-18.107 2.63-4.672 5.457-9.292 8.013-14.007 2.967-5.474 5.563-11.043 8.249-16.525 2.388-4.875 6.1-9.036 8.631-13.872z"/><path fill="#44312C" d="M679.897-14.886c3.246.325 24.996 8.372 28.502 10.386 12.299 7.065 27.825 10.61 40.5 17 4.896 2.468 19.897 7.957 24.75 10.5 11.085 5.809 19.915 8.974 31.5 13.75 10.588 4.366 15.451 6.026 25.75 11 4.679 2.26 14.76 5.622 19.463 7.75 8.624 3.903 14.001 5.747 22.029 10.519 7.643 4.542 15.311 8.689 23.668 11.731 7.533 2.742 13.863 7.335 21.686 9.438 8.967 2.41 17.114 6.663 25.403 10.738 4.195 2.063 8.896 2.791 12.955 5.038 1.564.866 3.142 1.251 4.796 1.916 1.562.627 2.979 1.23 4.51 1.914.916.408 3.222 1.146 3.896 1.885 1.414.523-.807 4.42-.807 4.42s-1.01 3.759-2.245 6.315c-2.444 5.061-5.877 9.936-10.185 13.584-4.147 3.513-15.619-5.55-19.336-7.573-5.678-3.089-10.35-7.054-16.546-9.173a113.835 113.835 0 0 1-16.521-7.177c-10.351-5.517-20.705-11.108-31.628-15.431-9.356-3.703-19.017-7.331-28.191-11.588-5.473-2.54-10.363-5.866-16.125-7.981-4.724-1.734-8.934-2.498-13.173-5.335-5.583-3.738-12.256-6.339-18.491-8.805-6.158-2.436-12.547-5.37-18.575-8.26-6.253-2.998-12.13-6.254-18.5-8.987-8.025-3.443-16.123-6.532-23.945-10.455-9.87-4.95-20.983-7.673-30.629-12.965-4.478-2.456-12.538-5.049-17.26-7.268-8.694-4.085-33.75-13.75-28-12s-27.973-8.818-34.75-15c.001 0 52.253-.21 55.499.114z"/><path fill="#A79898" d="M1050.872 331.512c10.109-4.213 18.595-7.456 29.699-6.887 0 10.391-.004 20.953-.004 31.318-6.617.193-13.516-4.389-20.574-4.467-7.871-.088-15.213 1.572-23.099.136-3.923-.714-19.685-1.44-18.919-8.029 8.239-6.47 23.004-7.948 32.897-12.071z"/><path fill="#474E21" d="M1080.482 672.417c-14.322.434-27.95.799-42.268-2.12-17.053-3.477-34.205-6.781-50.781-12.176-8.4-2.734-16.634-6.009-24.496-10.047-7.179-3.688-13.317-9.217-20.6-12.262-6.631-2.772-13.659-5.656-20.127-8.75-1.85-.885-3.646-1.639-5.306-2.813-6.496-4.601-11.968-9.659-16.006-16.499-1.258-2.131-2.475-4.26-3.562-6.499-3.046-6.269-9.879-10.143-13.438-16.362-3.36-5.871-4.207-12.477-4.947-19.08-.688-6.142-2.497-10.894-4.07-16.812-2.668-10.036-4.417-20.308-5.359-30.648a207.15 207.15 0 0 1-.82-15.555c-.048-3.066 1.432-8.771-.729-11.363-1.312-1.574-3.431-1.115-4.83-2.174-2.926-2.215-.793-7.005-.001-9.528.966-3.078 3.349-5.064 5.307-7.485 1.904-2.355 2.461-4.368 2.919-7.295 1.334-8.52 2.127-15.799 6.599-23.405 3.177-5.402 5.948-10.761 10.127-15.481 4.129-4.664 7.346-10.119 10.799-15.242 5.207-7.724 12.518-13.46 19.457-19.57 6.502-5.725 12.875-11.198 18.812-17.444 1.606-1.69 2.903-3.678 4.486-5.367 2.254-2.405 5.251-2.169 6.884-5.106 1.404-2.524 1.932-5.539 2.554-8.324 1.483-6.64 3.272-18.321 12.813-18.258 6.312-.56 10.574 5.448 12.688 10.575 1.129 2.739 2.953 6.042 6.252 6.179 3.118.129 5.84-2.479 8.764-3.205 4.466-1.109 9.067-1.775 13.635-2.299 9.185-1.054 18.437-1.29 27.663-1.762 11.057-.566 22.428.268 33.386 1.499 4.886.549 14.12-.081 14.316 6.311 0 4.047-.031 12.219-.031 11.922l-.005 28.865v69.75c0 25.119-.084 76.581-.084 75.332 0-1.249.084 68.333.084 67.167v48.5c0-1.416-.009 16.823-.085 16.831z"/><g fill="#767834"><path d="M879.399 558c-4.512 12.647-12.508 37.848.637 48.373 4.782 3.828 12.638 6.791 17.389 2.02 5.776-5.801 1.383-13.424-2.905-18.522-6.462-7.684-22.272-21.388-5.632-28.855 5.145-2.309 17.793.812 17.037-8.289-4.978-5.29-11.129-10.921-7.149-18.738.701-1.376 2.387-2.021 3.013-3.487.83-1.943-.068-4.088.611-6 1.621-4.558 5.324-3.385 8.609-6.876 4.339-4.611.093-3.535-3.107-6.611-3.994-3.838-1.986-5.032.374-8.637 3.671-5.607 3.024-16.265-5.863-11.989-7.281 3.503-.28 11.706-4.137 17.988-2.802 4.565-7.104 9.038-9.876 13.125-2.333 3.439-5.637 6.539-7.625 10.362-1.793 3.449-2.383 8.092-2.764 12.163-.462 4.932 4.069 9.715 1.388 13.973"/><path d="M909.399 589.5c-6.604 1.897-14.482-2.25-20.685-5.334 2.721-5.621.017-14.195 6.085-18.489 3.553 5.533 7.347 11.959 13.964 6.322 4.686-3.99 7.653-13.334 15.549-9.912 1.871 9.131-10.061 15.211-11.413 22.913M908.399 562c-7.243 2.168-2.354-14.43-1.623-17.587 1.822-7.862 2.292-15.971 5.222-23.375 2.939 2.529 5.674 8.348 8.028 11.823 4.035 5.955-.009 6.074-1.525 11.252-1.662 5.673.88 5.974-4.965 9.234-1.913 1.068-11.885 8.127-3.688 7.25-.735.676-1.83 1.118-2.948 1.402M900.011 413.737c-4.086 4.148-6.941 9.328-10.246 14.075-1.506 2.163-3.074 4.611-5.074 6.355-1.893 1.651-4.221 2.533-5.729 4.646-1.294 1.812-2.238 3.992-3.38 5.943-4.598 7.858-4.295 15.123 4.064 19.395 1.417.724 4.111 1.279 3.012 2.892-1.577 2.312-7.683-.018-9.959 2.271-1.217 1.224-1.744 2.677-3.3 3.688-1.794 1.165-3.287 1.759-4.437 3.744-1.07 1.849-1.383 3.981-1.812 6.006-.217 1.02-.655 2.009-.812 2.994-.095.598.116 2.546-.184 3.005-1.877 2.878-1.661-2.083-1.499-3.237.336-2.385.952-4.442 1.737-6.695 1.894-5.432 4.567-8.417 9.276-10.809 4.006-2.036 10.107-4.483 14.698-4.642 4.89-.169 5.927 3.977 9.923 5.744 4.649 2.056 9.372-2.647 13.634-.757 4.414 1.958 3.232 8.163 6.955 10.468 4.635 2.87 6.93-1.505 6.521-5.821-.574-6.051-7.788-11.491-11.375-16.5-5.101-7.12-5.81-1.729-12.25.862-5.792 2.33-19.098 2.053-20.373-5.86-1.145-7.102 5.651-6.799 9.973-8.878 4.713-2.268 10.484-5.66 13.661-10.024 3.151-4.33 1.332-9.37 3.978-13.625 2.259-3.635 8.579-6.022 12.298-4.563a.93.93 0 0 0 .123-.676c-7.368-5.527-12.721-6.806-19.423-.001zM942.888 399.99c-.178 3.645 3.228 7.937 7.073 6.768-3.17.963 1.773-15.16 1.974-16.044.284-1.252-4.526 2.307-4.693 2.445-1.87 1.548-4.23 4.285-4.354 6.831zM1013.273 384.013c-4.514 4.824-13.55 6.822-19.578 3.304-5.69-3.323-4.924-11.259-7.838-16.275-3.667-6.312-12.566-10.071-17.166-15.708-5.981-7.331-10.484-18.787-2.916-27.457 6.052-6.932 14.903 1.572 20.124 6.11 7.674 6.67 6.842 13.342 9.572 21.938 2.834-.209 7.879-4.989 10.916-6.55 5.34-2.745 9.226-4.852 15.398-3.4 11.353 2.669 18.14 15.207 10.638 25.414-2.506 3.409-6.349 3.279-10.016 4.715-4.761 1.865-6.086 4.65-9.134 7.909z"/><path d="M965.953 409.932c-5.278-5.552-8.974-11.382-10.326-18.995-1.446-8.136-5.089-13.727-7.255-21.437-2.458-8.747-1.035-24.938 9.277-30.5-2.455 9.901-12.314 15.906-1 26.438 2.354 2.192 4.541 4.308 6.737 6.662 2.294 2.459 3.562 5.513 6.112 7.777 1.913 1.697 4.495 2.235 6.024 4.5 1.503 2.227.99 4.9 3.39 6.685 3.272-4.039 3.101-17.435 3.012-22.839-.342-1.178-.47-1.258.1-2.646 5.19 4.639 8.251 13.626 10.875 19.935 1.171 2.816 3.729 8.014.624 10.248-2.282 1.642-8.458-.847-11.233-.869-2.931-.023-10.81-2.241-13.002-1.137-4.729 2.382 4.633 6.055 7.113 7.384 6.076 3.255 17.98 8.962 12.998 17.474-2.299 3.927-10.062 5.89-14.65 4.151-5.247-1.988-5.116-8.961-8.796-12.831z"/><path d="M944.461 424.299c-3.365-.294-7.403 1.383-8.339 4.778-.802 2.912.375 6.129 3.777 6.173 2.35.03 3.925-1.106 5.818.688 1.789 1.695 2.46 4.822 3.987 6.816 1.445 1.887 3.667 4.899 6.389 4.056 2.262-.701 2.877-3.491 3.056-5.548.234-2.704-.3-5.729.488-8.324.801-2.64 2.887-2.517 4.749-4.189 1.879-1.688 2.588-3.363 1.312-5.649-.996-1.784-2.552-2.174-1.743-4.544.824-2.417 6.671-7.11 4.013-9.88-1.439-1.5-6.562 1.006-8.52 1.422-1.077 1.818-2.252 4.257-3.236 6.513-.911 2.086-1.232 7.062-3.514 8.408-1.909 1.126-5.947-.519-8.237-.72zM922.656 568.703c-6.332-1.165-7.586 12.353-10.015 15.799-1.416 2.01-2.813 3.994-4.235 5.998a144.305 144.305 0 0 0-6.007 9.188c-1.865 3.119-4.574 6.013-5.457 9.629-.77 3.148 1.521 3.99 2.15 6.935.478 2.234-1.189 3.833-1.138 5.554.087 2.92 1.878 1.802 3.146-.111 1.302-1.966.991-4.181 3.299-5.512 1.936-1.117 4.096-.491 5.987.318 5.21 2.231 11.93 4.119 15.756-1.245 1.333-1.868 1.62-4.266 3.194-6.074 1.22-1.401 2.961-2.299 4.124-3.676 3.024-3.576 6.1-7.988 7.883-12.324 1.872-4.554 2.628-12.552-3.506-12.744-2.328-.072-4.41 2.891-6.488 1.949-2.267-1.027-2.467-6.386-3.395-8.33-1.013-2.125-2.817-4.898-5.298-5.354z"/><path d="M969.468 624.419c-5.596 4.516-12.036 6.83-19.262 6.581-3.967-.137-8.135-1.734-12.1-2.254-5.117-.671-10.188-2.776-14.963-4.688-2.576-1.031-8.621-1.026-10.393-3.262 3.639 4.593 8.832 7.157 13.386 10.746 2.166 1.707 4.544 3.213 6.671 4.944 1.721 1.399 2.704 3.699 4.58 4.958a40.688 40.688 0 0 0 5.817 3.235c4.34 1.938 9.302 2.925 14.013 2.062 4.271-.782 7.451-2.403 9.632-6.248.869-1.532 1.354-3.269 2.3-4.751 2.104-3.3 10.808-6.869 8.749-12.244-1.023-2.67-6.569-.581-8.43.921zM1014.399 657c-2.271 1.573-4.35 3.139-6.328 1.035-1.223-1.3-2.099-3.801-1.679-5.551 1.184-4.933 6.538-7.276 10.507-9.484 2.875-1.6 6.374-3.278 9.725-2.938-6.262 3.676-6.574 13.023-12.225 16.938zM1001.649 597.513c1.647-9.556-5.164-12.065-13.087-8.843-4.826 1.964-9.62 5.568-12.601 9.875-1.534 2.217-3.29 6.445-1.262 8.961 2.531 3.141 5.686-2.157 7.505-4.007 3.173-3.227 10.551-9.912 15.888-7.498 5.217 2.359-7.788 5.994-9.107 6.943-2.041 1.467-6.336 5.903-3.335 8.255 3.365 2.638 6.752-3.368 8.493-5.198 1.478-1.553 3.354-1.451 4.943-2.551 1.788-1.236 2.201-3.837 2.563-5.937zM1080.536 583.376c-.155-.316-8.109-.951-9.088-1.189-2.312-.562-6.24-1.816-8.218.194-2.551 2.596.987 5.69 2.92 7.308 1.16.971 4.773 3.883 3.198 5.692-1.89 2.171-4.94-3.218-6.942-2.628-3.294.971.957 4.405 1.444 5.748.838 2.312-1.023 3.602-2.683 4.499-2.698 1.458-9.606 4.449-7.58 9.056 3.597 8.174 15.915-11.584 20.062-10.812 3.724.693 4.998 6.427 4.5 9.506-.334 2.066-1.163 3.617-3.062 4.681-1.823 1.021-4.326.33-5.881 1.113-7.068 3.56 10.089 18.102 11.36 6.29v-26.208c0-.667-.03-9.334-.03-13.25zM1029.167 416.361c.3-4.028-17.628 3.146-18.999 3.229-1.848.112-3.792-.243-5.694-.096-2.381.184-7.088.792-5.1 4.314 1.215 2.154 5.361 2.603 7.427 3.568 1.775.83 4.323 2.186 5.792 3.423 2.33 1.961 1.953 4.947-1.4 4.488-1.521 1.717.874 4.085 2.281 5.217 1.804 1.451 3.164 1.493 5.364.684 2.473-.91 4.024-2.846 5.762-4.7 2.207-2.355 4.282-2.379 7.042-3.663 1.484-.69 4.236-2.806 3.52-4.822-.608-1.713-4.595-2.128-6.198-2.557-2.137-.572-11.845-1.749-12.544-3.716 3.038-2.66 12.296.689 12.747-5.369zM1032.844 486.431c-5.415-.176-11.776-9.229-11.626-14.22.151-4.987 3.074-1.403 5.185-.016 2.932 1.927 7.827 2.531 7.765-2.259-.028-2.217-1.582-2.76.969-4.491 1.985-1.348 3.468-.901 5.707-.445 1.939.395 4.486 1.539 5.75-.5 1.168-1.884-.521-2.12-.924-3.96 3.484-.706 5.803 7.832 4.05 9.794-2.045 2.291-6.687-.858-9.258-.222-8.471 2.096 2.645 16.652-7.618 16.319zM1051.85 437.475c2.026-3.911-2.306-7.804-6.122-7.619-3.132.152-5.344 4.072-2.32 6.162 1.188.82 3.375.135 4.755.469 1.216.294 2.313 1.257 3.687.988zM1047.163 447.507c.869 1.052 3.71 5.976 5.641 4.699 2.117-1.399-.871-3.78-1.475-4.802-1.368-2.319-.541-3.625-.661-6.288-.041-.928-5.105.537-5.541 1.221-1.201 1.887.928 3.83 2.036 5.17zM1080.566 414.748c-1.71-2.313-3.433-4.085-6.148-5.311-1.746-.788-6.181-2.059-8.086-1.568-2.75.708-3.606 4.408-6.752 4.754-2.141.236-7.524-2.465-7.447-4.873.063-1.98 3.509-2.78 3.461-5.001-.036-1.67-1.935-2.778-3.432-3.431-5.879-2.561-4.538 4.924-8.714 4.724-1.665 2.739 3.41 7.545 5.207 9.457 3.438 3.66 6.525 7.211 11.164 9.432 3.461 1.656 7.797 4.032 11.636 4.067 3.256.03 6.129.056 9.111 1.416-.139-4.542.163-9.007 0-13.666M1080.566 443.582c-2.061 2.622-8.387-5.265-11.118-4.975-4.145 6.063 7.379 7.75 6.151 11.988-1.581.786-6.924 2.895-5.412 5.904 1.308 2.604 8.082-.195 10.379 1.458 0-4.792-.014-9.732 0-14.375M1080.347 374.831c-1.536-.748-2.428-2.953-5.21-2.336-2.734.606-3.404 3.621-2.305 6.019 1.446 3.156 7.612 5.268 7.612 9.69-1.662-2.584-7.28-4.081-10.252-3.952-3.892.169-6.763 2.104-7.305 6.312-.682 5.279 3.371 4.26 6.586 5.731 2.398 1.098 3.914 4.295 1.145 5.208.303.437 6.863 4.028 3.268 3.839-.371.195-.977.81-1.198 1.084 3.199 2.703 6.477-1.569 6.212-4.674-.141-1.651-2.766-3.892-2.443-5.418.408-1.937 2.923-.76 4.11.416 0-3.625-.09-7.293.082-10.747.126-2.534-.077-8.759-.077-11.047M1079.899 501.5c-3.48.641-2.807 3.436-1.376 6.376 2.034 4.183 2.376 3.872 1.287 8.537-8.658-.772-32.493 10.354-15.923 17.463 3.64 1.562 15.824 5.831 7.512 11.039-3.271 2.05-10.759.53-14.414.169-5.235 5.073 5.92 12.5 10.428 14.817 2.573 1.322 11.802 6.891 13.136 3.196 0-.767-.04-1.434-.04-2.601-3.717-8.339-2.013-20.745-.609-30.024.226-1.495.444-3.068.643-4.694l-.003-25.157"/></g><g fill="#32361C"><path d="M879.399 437.667c5.261-5.6 7.633-15.591 12.166-22.516 4.757-7.266 11.287-14.423 16.986-20.966 5.803-6.662 11.959-13.027 18.601-18.86a158.8 158.8 0 0 1 10.468-8.443c2.885-2.129 6.424-5.24 9.735-6.6-.257 7.311 5.305 12.151 7.558 18.455.579 1.62 2.161 7.677.876 9.131-1.38 1.562-4.48-.285-6.356-.141-5.136.395-8.264 5.501-9.281 10.07-.668 3.003-.882 6.922.93 9.604.772 1.145 1.771 1.949 3.117 2.313.706.19 4.91.282 5.082-.65-.394 2.131-.724 4.53-.681 6.987-4.815 1.518-9.253 2.171-13.365 5.784-3.719 3.267-6.224 7.494-9.872 10.194-2.624-11.687-12.147-27.319-24.128-14.547-4.021 4.287-6.351 10.175-9.983 14.371-3.985 4.603-11.852 5.813-12.685 8.146l.832-2.332zM1002.733 342.667c1.704 2.453 4.003 5.229 5.398 7.95 4.491-1.235 10.611-.638 14.185 2.466 3.472 3.016 6.591 8.193 4.352 12.454-4.187-.371-7.643-3.907-11.853-4.379-4.267-.479-6.715 2.223-8.174 5.937-1.569 3.997-1.743 6.999-4.909 10.545-2.46 2.756-4.364 3.287-7.583 4.867-.475.233-1.511.208-2.017.293.071 11.312 6.81 21.571 11.991 31.144.381.087.644.116.966.266.074-4.745 5.739-12.726 10.994-11.892 3.698.587 2.21 1.584 5.391-.967 2.237-1.794 3.684-1.995 6.519-.952 2.572.946 4.036 2.599 6.156-.649 1.509-2.312.6-4.959.991-7.749.978-6.966 7.714-7.725 13.427-8.666 1.354-.223 1.768-.613 2.816-1.42-.388.173-1.841.657-2.2.14-.441-.636.955-1.699 1.337-2.221.683-.933 1.041-2.113 1.812-2.981.854-.961 2.055-1.409 3.153-2.063 3.214-1.914 6.596-3.475 10.196-4.514.066-1.349.606-2.605 1.309-3.583.45 5.125 3.202 2.142 7.083 2.3 2.593.106 4.195 1.509 6.496 1.789l-.004-22.198c0-1.208-10.72-4.398-11.776-4.763-4.271-1.478-8.635-1.914-13.122-2.543-3.746-.525-7.595-1.64-11.26-2.009-11.803-1.187-22.975 1.471-34.375 2.315-2.522.187-6.029-.064-8.3.75M867.4 535.666c-.147 3.416 2.025 6.272 3.324 9.282 1.312 3.042 2.019 6.447 3.425 9.417 1.033 2.185 2.741 7.725 5.228 6.171 1.866-1.166 2.77-5.292 3.592-7.218 1.459-3.414 2.489-7.1 4.03-10.436.137-.104.146-.089.024.042-15.762-5.65 12.859-12.876 6.377-21.127-2.624-2.007-4.848-4.508-6.335-7.667-1.958.522-5.55 5.238-7.516 6.793-2.725 2.155-5.002 4.436-7.142 6.927-2.358 2.745-4.827 5.238-5.342 9.148M914.785 556.074c7.049 5.549 9.535 10.016 4.322 17.522.854-.439 1.502-.718 2.227-1.563 1.984 14.298-5.874 30.499-15.216 40.157 5.791-1.413 10.453-3.619 13.855-8.877 1.581-2.441 3.342-4.938 5.103-7.314 1.688-2.277 2.942-5.715 4.732-7.667 4.989-5.439 8.588.894 7.582 5.998-.862 4.379-3.466 10.607-6.207 13.709 2.896-2.707 8.692-6.104 12.55-6.381 5.169-.372 7.615 3.234 11.425-2.252 2.425-3.493 4.331-8.144 3.907-12.424-.236-2.38-1.776-4.739-1.998-7.315-.21-2.444.379-4.732.357-7.187-3.008-2.85-7.831-3.604-9.771-7.7-2.478-5.229-.075-12.445 1.764-17.299-2.682-2.2-3.807-8.103-4.342-11.683-9.135-.883-16.91-6.457-22.941-12.664 3.006 3.093 2.605 13.295 2.267 17.206-.15 1.729-6.735 18.002-9.616 15.734z"/><path d="M996.399 423c-1.17 3.686 1.744 5.753 4.548 7.527-1.89 2.258-5.823 4.367-6.573 7.433-1.372 5.606 1.322 5.267-3.475 8.116-5.974 3.547-14.044 10.408-9.074 19.197-4.889.032-9.15 1.711-12.301 4.464-4.702 4.109-7.147 8.056-13.304 11.43-2.655 1.455-6.671 4.354-9.931 3.524-2.971-3.003-5.311-4.854-9.002-6.942-3.884-2.197-6.375-1.877-10.035-2.947-1.282-6.928-7.79-17.76-13.79-22.277 3.508-8.464 6.068-19.965 12.95-26.587 6.196 8.644-7.321 17.159-4.649 26.087.878 2.93 6.197 11.258 9.247 12.375 2.127.778 5.435-.122 7.877.611 2.48.745 3.755 1.352 6.059 2.81-.677-2.836-2.968-7.445-5.021-9.293-2.312-2.081-5.725-2.154-7.926-4.666-4.075-4.651-.947-11.687 5.275-12.787 4.118 6.171 7.918 15.463 9.652 22.398 1.432 5.723 2.165 16.478 7.986 19.813 2.803-4.979 2.18-12.521 3-18.287.41-2.889.341-6.056 1.377-8.611 1.133-2.794 3.131-4.245 4.736-6.751 1.251-1.953 1.55-6.857 3.848-7.661 2.987-1.046 3.677 3.231 7.414.911 4.216-2.617 5.711-11.941 9.099-15.7 4.868 2.905 7.721-2.024 11.513-4.187"/><path d="M956.009 398.977c-.758-3.065-2.264-4.791-2.609-8.477-.395-4.214.312-8.735.6-12.948 5.944 3.987 3.482 10.314 4.402 16.363.786 5.172 7.953 11.38 6.898 16.376-1.4 1.256-3.396.119-4.524 1.045-5.462 4.48-1.36 17.225-7.976 20.062-4.605 1.972-5.967-4.567-9.775-5.353-4.411-.909-5.063 2.687-7.512 4.917.189-.167.102-3.337.439-4.033.773-1.591 2.273-2.242 3.707-3.076 3.313-1.926 7.62-1.842 11.057-3.565 7.443-3.731 7.097-14.014 5.293-21.311zM1017.024 452.287c-1.505 3.654-2.491 9.806-5.25 13.576-1.732 2.368-1.32 2.598-4.014 2.249.281.036-6.151-3.131-6.386-3.371-2.08-2.126-1.021-3.895-.976-7.241.053-3.899-1.245-5.961-2.45-9.427 5.256.915 4.344-12.612 12.351-9.642.84-1.732.088-4.392-.016-5.938.029.428 6.056 5.194 6.759 5.601 3.302 1.912 4.948 1.5 8.597.823-2.621 4.549-6.538 8.332-8.615 13.37zM1039.899 433c-.33 2.854 2.487 4.684 4.948 5.096-12.213 5.702 3.189 12.192 6.6 18.928-3.632.935-5.851-3.949-9.435-.857-2.067 1.783-2.317 5.165.922 6.122-9.112-5.1-9.857 6.246-14.672 9.509-.096-.406-.22-1.124-.338-1.575-4.38-6.473-10.921-.324-15.338 1.948 10.711-12.099 19.455-26.362 27.312-40.171M1064.399 461c.841 4.152 7.535 8.371 11.936 9.099-5.023 10.292-25.186 22.413-36.734 20.049 5.404-3.797 10.961-7.573 15.604-12.311 4.827-4.928 5.529-11.203 9.194-16.837"/><path d="M1057.399 434.5c-.998 2.774-3.453 5.731-3.887 8.639-.502 3.364 1.521 6.679 2.387 9.861 1.648 6.058-.727 8.444-4.624 12.973-6.509 7.563-11.026 16.666-20.301 20.75 4.755 10.248 20.083-5.193 23.944-9.22 2.357-2.458 5.032-5.302 6.282-8.537.935-2.416.378-5.179 2.421-6.68-9.417-3.524-6.834-20.005-6.222-27.786M970.425 608c.604 6.276 3.707 7.621 8.036 11.527-3.147 3.21-6.615 6.875-10.076 10.225-4.621 4.474-9.139 4.731-14.985 4.749-11.969.036-17.838-3.624-28.048-9.559 4.717 1.952 11.673 1.808 18.538-1.526 7.135-1.166 15.373 3.328 20.069-3.739-5.499 5.214-21.404-1.849-25.982-6.353 5.749 3.316 20.067 4.508 24.47-1.823-.183.262-8.489-3.753-8.806-5.382 2.655-1.777 5.729-.772 8.522-2.324 4.567-2.539 5.053-9.121 10.641-9.498-2.57 3.954-2.82 9.135-2.379 13.703zM1028.79 643.643c-2.896 3.822-5.64 7.259-9.19 9.52 2.848-1.326 7.109-3.752 10.188-4.299 2.831-.503 6.151.385 9.536 1.212 1.75 10.094-21.009 8.04-26.323 10.622.014.071-.004 1.145-.024 1.23 8.609.417 17.536 1.477 25.411-1.539 4.274-1.637 6.88-3.34 8.025-7.877 1.422-5.635-1.143-7.714-2.999-11.801-4.571-3.558.239-7.892-1.44-12.588 3.174-2.88 8.712-.27 12.472-3.396-5.04 1.72-10.79-1.127-15.488 1.836-5.921 3.734-6.24 11.895-10.168 17.08z"/><path d="M1080.566 620.75c-3.424 1.645-9.648 4.754-14.167 5.25-6.861.754-9.066-3.184-12.124 3.487-2.192 4.784-3.123 8.646 1.515 12.787 2.617 2.338 8.549 4.132 5.508 9.15-2.021-.874-4.289-1.408-6.333-.323-.764.405 1.872 3.718 1.848 4.085-.484 7.439-16.838 10.895-22.237 10.438 13.574 1.149 34.923-.959 45.99-9.624v-35.25zM967.399 563.5c.757 4.739 7.075 11.315 12.111 13.889 3.628 1.854 13.601 1.42 14.975 5.026 1.934.404 5.694 4.199 6.303 6.196.974 3.192-1.346 6.093-2 9.555-1.625 8.602 2.436 12.941 6.486 19.848 2.945 5.02 3.239 3.108 8.625 4.986 4.126 1.439 3.395 4.726 8.512 4.623 8.276-.166 13.495-11.015 9.1-17.763-1.304-2.002-3.336-2.9-5.115-4.476-3.715-3.289-5.34-7.262-7.971-11.329-2.288-3.538-11.122-13.122-4.926-17.456 4.714-3.297 11.231 2.64 13.276 6.012 2.697 4.446 5.199 10.262 5.735 15.349.878-4.405 1.62-11.347 4.513-15.472 2.898-4.133 8.65-8.3 11.4-1.988 3.726 8.554-.987 22.015-1.449 30.448 10.093-2.416 4.846-20.284 10.45-25.46 6.879-6.354 15.717.979 23.117 2.093 0-5.125-.105-12.254-.021-17.583-3.538 4.276-4.044 6.902-9.87 7.35-4.099.315-6.729-.372-9.739-3.423-3.634-3.684-6.228-7.199-6.4-12.425-.17-5.121 2.279-6.321-3.125-7.638-3.649-.89-6.16-1.062-9.987-2.609-4.04-1.635-9.104-4.378-13.4-3.03-1.995.625-4.422 3.13-6.073 4.266-3.963 2.727-7.604 4.125-12.229 5.736-8.552 2.979-17.91 2.196-26.837 2.664-4.829.253-13.143-2.662-16.46 1.111M875.876 492.734c-3.563 1.083-9.732-.396-10.016-4.8-.195-3.051 4.39-6.457 5.668-8.832 1.729-3.21 1.963-7.181 3.471-10.113 4.533-8.814 11.715-4.735 16.765.109 1.858 1.782 4.462 4.663 7.11 4.928 3.829.384 5.413-2.583 8.498-3.665 6.492-2.277 10.983 4.574 12.452 10.439-3.868-.43-5.812 1.745-8.813 2.57-2.437.67-7.462 2.092-10.537 2.552.159-1.804.627-3.388.95-5.199-6.696-3.387-8.033 2.62-12.604 6.111-3.371 2.575-8.645 4.595-12.944 5.9zM1080.558 481.958c-5.828 12.743-16.893 11.601-26.757 15.819-5.254-.509-10.238.248-15.29-.554-1.437 2.242 2.707 6.985 3.387 9.777.754 3.095 2.331 8.862 2.089 11.913 4.302 2.134 10.548-1.052 13.415-4.401 1.8-2.103 2.578-4.915 4.862-6.635 2.504-1.887 4.72-.756 7.134-1.878 3.677-1.708 4.613-7.484 7.639-10.875 3.599-4.032 3.446-5.705 3.446-10.375"/></g><path fill="#686E2E" d="M1001.573 419.936c-2.044-5.503-4.553-13.027-6.606-18.616-14.645-39.86-29.787-81.076-51.252-117.733-24.221-41.364-53.146-70.564-88.429-89.27l2.342-4.418c36.127 19.153 65.698 48.972 90.401 91.161 21.69 37.041 36.911 78.47 51.631 118.535 2.052 5.583 4.443 14.378 6.485 19.876l-4.572.465z"/><path fill="none" stroke="#686E2E" d="M871.456 502.593c-.132-6.122 15.045-15.407 22.499-18"/><path fill="#686E2E" d="m839.434 667.942-1.068-4.885c4.088-.894 6.963-3.909 10.008-7.101 1.553-1.628 3.159-3.312 4.997-4.799a531.373 531.373 0 0 1 4.289-3.424c5.067-4.016 10.308-8.169 14.815-12.857a387.962 387.962 0 0 1 3.648-3.73c4.35-4.411 8.849-8.972 12.339-14.049 14.914-21.691 37.684-63.359 48.498-83.362l-6.308 22.543c-10.881 20.126-23.023 41.767-38.069 63.651-3.742 5.442-8.397 10.162-12.9 14.728-1.208 1.225-2.415 2.448-3.604 3.685-4.741 4.932-10.115 9.191-15.313 13.312-1.421 1.126-2.842 2.252-4.25 3.392-1.587 1.284-3.014 2.78-4.523 4.363-3.431 3.595-6.978 7.313-12.559 8.533z"/><path fill="none" stroke="#686E2E" d="M996.399 618c3.404-7.567 4.33-16.119 3.525-24.396-.309-3.179-1.98-12.022-4.525-13.104"/><path fill="#686E2E" d="m1015.467 496.093-.035-5c20.585-.147 42.329-10.859 44.173-31.874l4.018 3.067c-.96 10.943-5.851 18.618-15.683 24.984-8.653 5.602-20.185 8.735-32.473 8.823z"/><path fill="#E0785D" d="M1019.037 468.812a42.643 42.643 0 0 0-6.637-4.138c-9.426-4.727-18.458-7.992-29.146-6.141-8.497 1.472-17.14 5.348-23.634 11.066-4.547 4.004-10.794 9.61-13.812 14.899-1.864 3.266-3.26 7.363-4.073 10.983-1.487 6.619-2.3 14.137-2.667 20.853-.673 12.322 1.192 23.224 8.656 33.073 8.408 11.095 23.721 19.721 37.928 21.61 7.049.938 13.82-.734 20.73-1.333 15.604-1.354 28.911-11.258 35.676-25.393 2.641-5.519 5.266-11.761 5.675-18.042.323-4.965-.526-10.207-.666-15.175-.151-5.407-2.163-14.276-5.433-18.435-4.466-5.681-9.828-10.586-14.501-16.09-2.46-2.899-5.139-5.501-8.096-7.737z"/><path fill="#FCF8E9" d="M999.139 502.141c-6.379-3.515-15.844-2.596-20.331 4.035-6.85 10.121 5.997 23.822 16.667 19.572 4.676-1.863 9.208-6.192 9.925-11.083.862-5.886-2.017-10.186-6.261-12.524zM927.769 472.842c-7.468-.479-13.56 4.429-16.375 11.104-1.171 2.777-2.842 6.563-2.623 9.604.208 2.89 1.857 5.662 3.698 7.81 3.742 4.365 9.601 7.796 15.392 8.302 9.283.811 19.51-2.865 24-11.504 1.645-3.164 1.98-7.125 1.504-10.606-.938-6.844-10.289-12.031-16.333-13.381a58.026 58.026 0 0 0-9.263-1.329zM860.07 484.402c-2.285.068-4.59.339-6.845.598-12.553 1.437-25.987 6.395-33.457 16.958-3.384 4.786-6.153 11.775-6.713 17.667-.573 6.041 1.489 11.485 5.509 15.883 3.479 3.807 7.779 7.727 12.333 10.158 4.88 2.605 10.213 4.329 15.789 4.227 6.424-.117 12.883-2.556 18.698-5.11 2.301-1.01 4.153-2.209 6.21-3.649 3.02-2.115 5.944-4.615 8.595-7.175 1.119-1.081 2.042-2.088 2.834-3.413 2.075-3.472 4.298-5.986 5.419-10.009.734-2.635 1.113-5.647 1.122-8.37.014-3.961-.935-8.463-2.991-11.883-1.17-1.945-2.341-3.861-3.712-5.654-3.691-4.828-8.05-6.296-13.394-8.685-2.97-1.329-6.164-1.639-9.397-1.543zM1013.908 672.279c3.926-6.964 2.251-15.369-1.422-22.515-3.447-6.704-11.921-9.691-18.792-11.203-5.969-1.313-12.352-1.159-17.989 1.369-5.089 2.282-10.701 4.928-14.744 8.869-6.859 6.69-9.403 19.454-2.247 26.907 5.845 6.088 15.498 7.815 23.436 9.286 11.316 2.096 22.294-1.068 29.818-9.938a17.694 17.694 0 0 0 1.94-2.775zM832.785 692.505c16.245 2.243 26.605-16.915 19.156-30.262-2.256-4.042-7.253-8.094-11.791-9.438-13.4-3.969-24.72 9.359-23.444 22.248.724 7.316 8.541 16.411 16.079 17.452z"/><path fill="#DEA84E" d="M858.34 515.795c-1.654-2.126-4.091-3.726-6.496-4.203-2.997-.594-7.271.455-9.626 2.462-1.923 1.639-3.584 3.146-4.067 5.763-1.048 5.67 2.978 9.43 8.106 10.79 5.123 1.358 11.707-1.654 13.687-6.854 1.052-2.765.178-5.667-1.604-7.958zM936.526 485.208c-3.668-5.346-10.025-2.268-12.52 2.622-2.11 4.136-1.393 9.272 2.721 11.846 3.688 2.308 8.511-1.192 10.004-4.542 1.393-3.128 1.76-7.062-.205-9.926zM836.418 675.5c3.896-2.824 4.19-9.075-.476-11.491-3.987-2.064-8.728 2.653-8.792 6.555-.086 5.182 4.87 8.125 9.268 4.936zM996.291 661.206c-.211-1.3-.643-2.56-1.15-3.569-2.836-5.628-9.748-6.27-15.004-3.275-1.641.935-3.638 2.981-4.431 4.682-2.8 5.998 4.285 9.497 9.145 9.72 3.055.141 9.021.284 10.803-2.711.81-1.363.913-3.139.637-4.847z"/><path fill="#FCF8E9" d="M1015.324 347.307c-6.315-13.424-28.815-11.203-31.174 3.958-.894 5.743-.216 9.286 3.51 13.735 3.921 4.684 8.433 5.194 14.383 4.683 10.007-.861 17.712-12.959 13.281-22.376zM857.978 207.898c3.837-4.181 7.708-8.351 11.015-12.972 3.97-5.548 10.726-12.541 10.472-19.885-.238-6.88-6.361-10.34-12.65-10.048-3.36.156-6.024.557-9.081 1.925-8.159 3.653-14.498 12.898-17.433 21.124-1.448 4.06-2.376 8.35-2.567 12.666-.265 5.958-.671 16.401 7.667 16.626 5.57.15 8.176-4.621 11.535-8.296.345-.381.694-.761 1.042-1.14zM996.123 634.933c12.977-2.977 21.062-16.579 9.12-25.565-8.721-6.562-31.967 1.661-31.799 14.342.126 9.355 15.655 12.834 22.679 11.223z"/><path fill="#DEA84E" d="M1002.03 356.542c.251-.329.448-.715.576-1.159 1.176-4.086-3.383-6.405-6.544-3.876-1.44 1.152-2.064 3.455-.792 4.956 1.668 1.969 5.218 2.1 6.76.079z"/></svg>